<svg xmlns="http://www.w3.org/2000/svg" width="16.5" height="16.5" viewBox="0 0 16.5 16.5"><path d="M11.377-9l4.691-4.691a1.475,1.475,0,0,0,0-2.085l-1.043-1.043a1.475,1.475,0,0,0-2.085,0L8.25-12.127,3.559-16.818a1.475,1.475,0,0,0-2.085,0L.432-15.776a1.475,1.475,0,0,0,0,2.085L5.123-9,.432-4.309a1.475,1.475,0,0,0,0,2.085L1.474-1.182a1.475,1.475,0,0,0,2.085,0L8.25-5.873l4.691,4.691a1.475,1.475,0,0,0,2.085,0l1.043-1.043a1.475,1.475,0,0,0,0-2.085Z" transform="translate(0 17.25)" fill="#707070"/></svg>