<svg xmlns="http://www.w3.org/2000/svg" width="27" height="27" viewBox="0 0 27 27"><rect width="27" height="27" fill="#ff13dc" opacity="0"/><path d="M14.5,14.5h3V4.75A.75.75,0,0,0,16.75,4H7V7h7.5Z" transform="translate(3.5 2)" fill="#6e6e6e"/><path d="M8.5,17.5V1.75A.75.75,0,0,0,7.75,1H6.25a.75.75,0,0,0-.75.75V5.5H1.75A.75.75,0,0,0,1,6.25v1.5a.75.75,0,0,0,.75.75H5.5V19.75a.75.75,0,0,0,.75.75H17.5v3.75a.75.75,0,0,0,.75.75h1.5a.75.75,0,0,0,.75-.75V20.5h3.75a.75.75,0,0,0,.75-.75v-1.5a.75.75,0,0,0-.75-.75Z" transform="translate(0.5 0.5)" fill="#6e6e6e"/></svg>