<svg xmlns="http://www.w3.org/2000/svg" width="61" height="61" viewBox="0 0 61 61"><path d="M57.551-34.348A29.2,29.2,0,0,0,60.1-44.817c0-8.664-9.488-11.72-24.981-4.6C22.3-50.268,9.958-40.636,6.875-27.2,10.55-31.352,16.2-37,21.407-39.25A78.74,78.74,0,0,0,5.241-18.619C2.77-14.1,0-6.8,0-1.341c0,11.744,11.063,10.306,21.475,5,3.744,1.838,7.93,1.855,12.116,1.855,11.571,0,21.952-6.469,25.831-17.4h-14.4C38.771-1.323,21.577-5.564,21.577-17.529H60.75A27.357,27.357,0,0,0,57.551-34.348ZM7.692-12.048A27.69,27.69,0,0,0,19.637,2.643C9.065,8.473-1.006,6.109,7.692-12.048ZM21.509-25.019c.238-6.571,5.99-11.3,12.388-11.3,6.364,0,12.15,4.732,12.388,11.3ZM43.495-47.37c2.553-1.226,5.786-2.621,8.645-2.621a6.166,6.166,0,0,1,6.466,6.4,26.655,26.655,0,0,1-1.736,8.086C53.739-40.544,49.008-45.225,43.495-47.37Z" transform="translate(0 53.375)" fill="#676f74"/></svg>