<svg xmlns="http://www.w3.org/2000/svg" width="129.403" height="20" viewBox="0 0 129.403 20"><g transform="translate(-107.799 -635.895)"><g transform="translate(175.134 635.895)"><rect width="28.401" height="20" rx="3" transform="translate(0 0)" fill="#36495d"/><g transform="translate(5.377 4.547)"><rect width="4.771" height="8.574" transform="translate(6.437 1.166)" fill="#7673c0"/><path d="M1288.9,692.981a5.443,5.443,0,0,1,2.083-4.287,5.453,5.453,0,1,0,0,8.574,5.443,5.443,0,0,1-2.083-4.287" transform="translate(-1282.163 -687.528)" fill="#e41b24"/><path d="M1391.181,692.981a5.453,5.453,0,0,1-8.823,4.287,5.454,5.454,0,0,0,0-8.574,5.453,5.453,0,0,1,8.823,4.287m-.52,3.379v-.176h.071v-.036h-.18v.036h.071v.176Zm.35,0v-.212h-.055l-.063.146-.063-.146h-.055v.212h.039v-.16l.06.138h.041l.06-.138v.16Z" transform="translate(-1373.535 -687.528)" fill="#00a1df"/></g></g><g transform="translate(107.799 635.895)"><rect width="28.401" height="20" rx="3" transform="translate(0 0)" fill="#0066b2"/><g transform="translate(5.136 7.35)"><path d="M588.7,726.192h-1.479l.925-5.682h1.479Z" transform="translate(-580.844 -720.408)" fill="#fff"/><path d="M519.912,720.51l-1.41,3.908-.167-.842h0l-.5-2.555a.633.633,0,0,0-.7-.512H514.8l-.027.1a5.53,5.53,0,0,1,1.547.65l1.285,4.936h1.541l2.354-5.682Z" transform="translate(-514.777 -720.408)" fill="#fff"/><path d="M664.787,726.192h1.358l-1.184-5.682h-1.189a.68.68,0,0,0-.683.423l-2.206,5.258h1.542l.308-.844h1.88Zm-1.628-2.01.777-2.126.437,2.126Z" transform="translate(-648.017 -720.408)" fill="#fff"/><path d="M618.582,720.823l.211-1.22a4.272,4.272,0,0,0-1.331-.248c-.734,0-2.477.321-2.477,1.881,0,1.468,2.046,1.486,2.046,2.257s-1.835.633-2.441.147l-.22,1.276a4.143,4.143,0,0,0,1.67.321c1.009,0,2.532-.523,2.532-1.945,0-1.477-2.065-1.615-2.065-2.257S617.949,720.474,618.582,720.823Z" transform="translate(-605.601 -719.355)" fill="#fff"/><path d="M518.335,723.577l-.5-2.555a.633.633,0,0,0-.7-.512H514.8l-.027.1a5.735,5.735,0,0,1,2.2,1.1A4.432,4.432,0,0,1,518.335,723.577Z" transform="translate(-514.777 -720.408)" fill="#f9a533"/></g></g><g transform="translate(141.466 635.895)"><rect width="28.401" height="20" rx="3" transform="translate(0 0)" fill="#36495d"/><g transform="translate(5.377 4.547)"><rect width="4.771" height="8.574" transform="translate(6.437 1.166)" fill="#f16522"/><path d="M906.581,692.981a5.444,5.444,0,0,1,2.083-4.287,5.453,5.453,0,1,0,0,8.574,5.444,5.444,0,0,1-2.083-4.287" transform="translate(-899.841 -687.528)" fill="#e41b24"/><path d="M1008.859,692.981a5.453,5.453,0,0,1-8.823,4.287,5.454,5.454,0,0,0,0-8.574,5.453,5.453,0,0,1,8.823,4.287m-.52,3.379v-.176h.071v-.036h-.18v.036h.071v.176Zm.35,0v-.212h-.055l-.063.146-.064-.146h-.055v.212h.039v-.16l.06.138h.04l.06-.138v.16Z" transform="translate(-991.213 -687.528)" fill="#f89e1c"/></g></g><g transform="translate(208.785 635.895)"><rect width="28.401" height="20" rx="3" transform="translate(0.016 0)" fill="#2b2b2b"/><path d="M237.857,389.513a6.866,6.866,0,0,1-6.945-6.758,6.76,6.76,0,0,1,6.945-6.876h1.785a7,7,0,0,1,7.2,6.876c0,3.718-3.436,6.758-7.2,6.758Zm.015-13.07a6.241,6.241,0,1,0,6.3,6.241A6.273,6.273,0,0,0,237.872,376.443Zm-1.431,9.932v-7.382a3.939,3.939,0,0,0,0,7.382Zm5.427-3.691a3.961,3.961,0,0,0-2.566-3.692v7.384A3.961,3.961,0,0,0,241.868,382.684Z" transform="translate(-224.345 -373.073)" fill="#fff"/></g></g></svg>