<svg xmlns="http://www.w3.org/2000/svg" width="28.401" height="20" viewBox="0 0 28.401 20"><g transform="translate(-27.971 -77.041)"><rect width="28.401" height="20" rx="3" transform="translate(27.971 77.04)" fill="#1b9b58"/><path d="M45.636,90.038a2.844,2.844,0,0,1-2.66,1.829V93.08a.4.4,0,0,1-.4.4h-.806a.4.4,0,0,1-.4-.4V91.872a3.565,3.565,0,0,1-2.177-.755.409.409,0,0,1-.045-.617l.876-.855a.392.392,0,0,1,.49-.051,1.54,1.54,0,0,0,.861.265h1.668a.742.742,0,0,0,.209-1.454l-2.579-.755a2.883,2.883,0,0,1-2.109-2.431,2.757,2.757,0,0,1,2.743-3.01h.063V81a.4.4,0,0,1,.4-.4h.806a.4.4,0,0,1,.4.4v1.208a3.565,3.565,0,0,1,2.177.755.409.409,0,0,1,.045.617l-.876.855a.392.392,0,0,1-.49.051,1.54,1.54,0,0,0-.861-.265H41.3a.742.742,0,0,0-.209,1.454l2.717.8A2.764,2.764,0,0,1,45.636,90.038Z" fill="#fff"/></g></svg>