<svg xmlns="http://www.w3.org/2000/svg" width="28.401" height="20" viewBox="0 0 28.401 20"><g transform="translate(-62.226 -76.763)"><rect width="28.401" height="20" rx="3" transform="translate(62.226 76.763)"/><path d="M84.362,89.65a1,1,0,0,1-.331.689l-4.168,3.335a2.05,2.05,0,0,1-1.1.385H68.93a.441.441,0,0,1-.441-.44V90.972a.441.441,0,0,1,.441-.44h1.527l1.281-1.039a3.778,3.778,0,0,1,2.043-.725h4.407a.883.883,0,0,1,.883.88v0a1.2,1.2,0,0,1-.012.147.917.917,0,0,1-.917.733H75.984a.441.441,0,0,0,0,.882h3.264a2.042,2.042,0,0,0,1.1-.386l2.546-2.036a.912.912,0,0,1,1.174,0A1,1,0,0,1,84.362,89.65Zm-9.687-7.038a1.583,1.583,0,0,1,1.474-1.736V80.39a.462.462,0,0,1,.479-.44h.479a.462.462,0,0,1,.479.44v.49a2.738,2.738,0,0,1,.951.316.351.351,0,0,1,.152.27.357.357,0,0,1-.047.165.4.4,0,0,1-.059.072l-.524.482a.393.393,0,0,1-.421.055.993.993,0,0,0-.31-.061h-.98a.243.243,0,0,0-.252.232.251.251,0,0,0,.182.224l1.5.393a1.674,1.674,0,0,1,1.284,1.315,1.584,1.584,0,0,1-1.475,1.736v.485A.463.463,0,0,1,77.1,87h-.479a.463.463,0,0,1-.479-.441v-.488a2.758,2.758,0,0,1-.951-.316.351.351,0,0,1-.152-.271.364.364,0,0,1,.046-.164.388.388,0,0,1,.061-.073l.525-.483a.394.394,0,0,1,.421-.054.985.985,0,0,0,.308.06h.982a.242.242,0,0,0,.251-.231.251.251,0,0,0-.183-.224l-1.5-.393A1.676,1.676,0,0,1,74.675,82.612Z" fill="#fff"/></g></svg>