<svg id="Layer_1" data-name="Layer 1" xmlns="http://www.w3.org/2000/svg" viewBox="0 0 23.98 23.98"><defs><style>.cls-1{fill:#fff;}</style></defs><g id="Layer_2" data-name="Layer 2"><g id="red_details" data-name="red details"><g id="_" data-name=" "><path class="cls-1" d="M23.67,22.35l-1.33,1.32a1.12,1.12,0,0,1-1.58,0h0L16.08,19a1.14,1.14,0,0,1-.33-.8v-.76a9.74,9.74,0,1,1,1.69-1.69h.76a1.14,1.14,0,0,1,.8.33l4.67,4.67a1.13,1.13,0,0,1,0,1.6ZM15.75,9.75a6,6,0,1,0-6,6A6,6,0,0,0,15.75,9.75Z" transform="translate(-0.02 -0.02)"/></g></g></g></svg>