<svg xmlns="http://www.w3.org/2000/svg" viewBox="0 0 24 24"><defs><style>.cls-1{isolation:isolate;}.cls-2{fill:#707070;}</style></defs><title> </title><g id="Layer_2" data-name="Layer 2"><g id="red_details" data-name="red details"><g id="_" data-name=" " class="cls-1"><g class="cls-1"><path class="cls-2" d="M23.67,22.35l-1.33,1.32a1.12,1.12,0,0,1-1.59,0L16.08,19a1.14,1.14,0,0,1-.33-.8v-.76a9.74,9.74,0,1,1,1.69-1.69h.76a1.14,1.14,0,0,1,.8.33l4.67,4.67A1.13,1.13,0,0,1,23.67,22.35ZM15.75,9.75a6,6,0,1,0-6,6A6,6,0,0,0,15.75,9.75Z"/></g></g></g></g></svg>