<svg xmlns="http://www.w3.org/2000/svg" width="48" height="16" viewBox="0 0 48 16">
  <g id="Group_199" data-name="Group 199" transform="translate(-1176 -1106)">
    <path id="check-circle-fill" d="M16,8A8,8,0,1,1,8,0a8,8,0,0,1,8,8ZM12.03,4.97a.75.75,0,0,0-1.08.022L7.477,9.417,5.384,7.323a.75.75,0,0,0-1.06,1.06L6.97,11.03a.75.75,0,0,0,1.079-.02l3.992-4.99a.75.75,0,0,0-.01-1.05Z" transform="translate(1176 1106)" fill="#24ce4c" fill-rule="evenodd"/>
    <path id="exclamation-triangle-fill" d="M8.982,1.566a1.13,1.13,0,0,0-1.96,0L.165,13.233A1.167,1.167,0,0,0,1.145,15H14.858a1.167,1.167,0,0,0,.98-1.767ZM8,5a.9.9,0,0,0-.9.995L7.45,9.5a.552.552,0,0,0,1.1,0L8.9,5.995A.905.905,0,0,0,8,5Zm0,6a1,1,0,1,0,1,1A1,1,0,0,0,8,11Z" transform="translate(1192 1106.001)" fill="#ffb400" fill-rule="evenodd"/>
    <path id="x-octagon-fill" d="M11.46.146A.5.5,0,0,0,11.107,0H4.893A.5.5,0,0,0,4.54.146L.146,4.54A.5.5,0,0,0,0,4.893v6.214a.5.5,0,0,0,.146.353L4.54,15.854A.5.5,0,0,0,4.893,16h6.214a.5.5,0,0,0,.353-.146l4.394-4.394A.5.5,0,0,0,16,11.107V4.893a.5.5,0,0,0-.146-.353Zm.394,4.708a.5.5,0,1,0-.708-.708L8,7.293,4.854,4.146a.5.5,0,0,0-.708.708L7.293,8,4.146,11.146a.5.5,0,0,0,.708.708L8,8.707l3.146,3.147a.5.5,0,1,0,.708-.708L8.707,8Z" transform="translate(1208 1106)" fill="#f63535" fill-rule="evenodd"/>
  </g>
</svg>
