<svg xmlns="http://www.w3.org/2000/svg" viewBox="0 0 12.25 14"><defs><style>.cls-1{fill:#fff;}</style></defs><g id="Layer_2" data-name="Layer 2"><g id="Layer_1-2" data-name="Layer 1"><path id="Path_268" data-name="Path 268" class="cls-1" d="M7.33,11.38H8a.33.33,0,0,0,.33-.33V5.14A.33.33,0,0,0,8,4.81H7.33A.33.33,0,0,0,7,5.14H7v5.91A.33.33,0,0,0,7.33,11.38Zm4.48-9.19H9.56L8.63.64A1.44,1.44,0,0,0,7.5,0H4.75A1.44,1.44,0,0,0,3.62.64L2.69,2.19H.44A.44.44,0,0,0,0,2.63v.43a.44.44,0,0,0,.44.44H.88v9.19A1.31,1.31,0,0,0,2.19,14h7.87a1.32,1.32,0,0,0,1.32-1.31V3.5h.43a.44.44,0,0,0,.44-.44V2.63a.44.44,0,0,0-.44-.44ZM4.7,1.39a.16.16,0,0,1,.14-.08H7.41a.16.16,0,0,1,.14.08l.48.8H4.22Zm5.36,11.3H2.19V3.5h7.87ZM4.27,11.38h.65a.33.33,0,0,0,.33-.33V5.14a.33.33,0,0,0-.33-.33H4.27a.33.33,0,0,0-.33.33h0v5.91A.33.33,0,0,0,4.27,11.38Z"/></g></g></svg>