<?xml version="1.0" standalone="no"?>
<!DOCTYPE svg PUBLIC "-//W3C//DTD SVG 20010904//EN"
 "http://www.w3.org/TR/2001/REC-SVG-20010904/DTD/svg10.dtd">
<svg version="1.0" xmlns="http://www.w3.org/2000/svg"
 width="287.000000pt" height="287.000000pt" viewBox="0 0 287.000000 287.000000"
 preserveAspectRatio="xMidYMid meet">
<metadata>
Created by potrace 1.11, written by Peter Selinger 2001-2013
</metadata>
<g transform="translate(0.000000,287.000000) scale(0.100000,-0.100000)"
fill="#000000" stroke="none">
<path d="M1315 2369 c-159 -60 -315 -119 -345 -129 -30 -11 -63 -28 -73 -38
-10 -11 -33 -72 -52 -138 -38 -135 -114 -422 -120 -452 -2 -10 -12 -50 -24
-88 -23 -80 -57 -216 -65 -259 -9 -46 3 -90 32 -124 25 -28 47 -36 242 -87
118 -31 222 -58 230 -60 8 -2 83 -21 165 -43 83 -21 231 -60 330 -86 99 -25
212 -55 250 -65 375 -100 491 -129 511 -125 10 2 22 4 26 4 4 1 23 15 43 32
44 39 40 25 250 814 66 248 104 385 121 443 19 61 20 142 3 174 -12 22 -47 58
-57 58 -2 0 -72 18 -156 39 -83 22 -259 67 -391 101 -132 34 -308 79 -391 101
-84 21 -171 39 -195 38 -31 0 -134 -34 -334 -110z m290 49 c-2 -7 -22 -74 -45
-148 -23 -74 -51 -149 -61 -167 -23 -36 -60 -52 -115 -48 -46 4 -371 101 -412
124 -8 4 113 54 290 120 167 61 310 116 318 121 21 13 30 12 25 -2z"/>
<path d="M82 1889 c-69 -45 -66 -15 -68 -714 -2 -382 1 -648 7 -675 6 -25 19
-55 29 -68 41 -49 24 -49 982 -48 894 1 897 1 925 22 15 12 36 34 45 50 18 30
32 153 20 171 -4 5 -88 30 -187 55 -154 39 -575 147 -915 235 -52 13 -102 26
-110 28 -191 42 -242 72 -283 164 -31 70 -26 140 26 341 25 96 60 231 77 300
17 69 33 133 36 143 5 16 -13 17 -273 17 -265 0 -279 -1 -311 -21z"/>
</g>
</svg>
