<svg id="Layer_1" data-name="Layer 1" xmlns="http://www.w3.org/2000/svg" viewBox="0 0 249.98 60.51"><defs><style>.cls-1{fill:none;}.cls-2{fill:#fff;}</style></defs><rect class="cls-1" width="249.98" height="60.51"/><path class="cls-2" d="M21.09,37.86H7.3V34.73l9-13.29H7.68V18H21.09v3.08l-9,13.35h9Z"/><path class="cls-2" d="M40.93,37.86H36.66l-1.24-3.52H28l-1.27,3.52H22.42L30.05,18h3.22Zm-6.6-6.79-2.57-7.23-2.65,7.23Z"/><path class="cls-2" d="M57.11,32a5.18,5.18,0,0,1-2.19,4.43A9.26,9.26,0,0,1,49.33,38c-3.28,0-5.84-.88-7.66-2.63l2.65-2.51a7.06,7.06,0,0,0,5.07,1.67c2.48,0,3.71-.82,3.71-2.45a2.12,2.12,0,0,0-.61-1.67,3.62,3.62,0,0,0-1.89-.71l-2.54-.33c-3.71-.49-5.56-2.34-5.57-5.56a5.43,5.43,0,0,1,2-4.37,8,8,0,0,1,5.33-1.66A9.61,9.61,0,0,1,56.6,20.1L54,22.56a6.1,6.1,0,0,0-4.3-1.37,3.59,3.59,0,0,0-2.41.71,2.28,2.28,0,0,0-.84,1.8,1.85,1.85,0,0,0,.67,1.45,3.6,3.6,0,0,0,1.9.76l2.47.33a7.45,7.45,0,0,1,4,1.54A5.34,5.34,0,0,1,57.11,32ZM55.17,12.62l-3.89,3.93H48.21l-3.89-3.93h3l2.44,2.09,2.45-2.09Z"/><path class="cls-2" d="M74.45,21.44H69V37.86H64.87V21.44H59.38V18H74.45Z"/><path class="cls-2" d="M81.87,37.86H77.78V18h4.09Z"/><path class="cls-2" d="M100.27,21.44H94.78V37.86H90.69V21.44H85.2V18h15.07Z"/><path class="cls-2" d="M119.66,37.86H116l-8.31-12.2v12.2h-4.1V18h3.65l8.32,12.18V18h4.09Z"/><path class="cls-2" d="M138.38,37.86H124.56V18h13.82v3.47h-9.73V26.1h8.29v3.47h-8.29V34.4h9.73Z"/><path class="cls-2" d="M163.05,21.44h-9.72v4.89h8.28v3.46h-8.28v8.07h-4.1V18h13.82Z"/><path class="cls-2" d="M181.42,27.92a24.13,24.13,0,0,1-.27,4.49,6.19,6.19,0,0,1-1.82,3.44,8.47,8.47,0,0,1-11.35,0,6.15,6.15,0,0,1-1.83-3.44,28.1,28.1,0,0,1-.24-4.49,28.23,28.23,0,0,1,.24-4.5A6.15,6.15,0,0,1,168,20a8.47,8.47,0,0,1,11.35,0,6.13,6.13,0,0,1,1.82,3.43A25,25,0,0,1,181.42,27.92Zm-4.1,0q0-2.3-.06-2.91a4.45,4.45,0,0,0-1-2.68,3.43,3.43,0,0,0-2.62-1.06A3.49,3.49,0,0,0,171,22.33a4.56,4.56,0,0,0-.94,2.68q-.06.51-.06,2.91c0,1.6,0,2.57.06,2.9A4.56,4.56,0,0,0,171,33.5a3.45,3.45,0,0,0,2.66,1.06,3.38,3.38,0,0,0,2.85-1.34c.55-.68.81-2.45.81-5.3Z"/><path class="cls-2" d="M199.22,37.86H185.6V18h4.1V34.4h9.52Z"/><path class="cls-2" d="M206.65,37.86h-4.1V18h4.1Z"/><path class="cls-2" d="M222,31.32a6.13,6.13,0,0,1-2.24,5A7.86,7.86,0,0,1,214.61,38a7.55,7.55,0,0,1-5.39-2l2.71-2.54a3.8,3.8,0,0,0,2.68,1.11q3.3,0,3.3-3.4V18H222Z"/><path class="cls-2" d="M240.43,37.86H226.61V18h13.82v3.47H230.7V26.1H239v3.47h-8.3V34.4h9.73Z"/><path class="cls-2" d="M15.74,47.81a3.21,3.21,0,0,1-.45,1.68A3.14,3.14,0,0,1,14,50.65a4.2,4.2,0,0,1-2,.43H9.42V55.3H7.66V44.55H12a4.37,4.37,0,0,1,1.52.25,3.29,3.29,0,0,1,1.19.68,3.18,3.18,0,0,1,.74,1A3.38,3.38,0,0,1,15.74,47.81Zm-1.75,0a1.64,1.64,0,0,0-.56-1.31A2.19,2.19,0,0,0,12,46H9.42v3.6H12a2.17,2.17,0,0,0,1.49-.48A1.62,1.62,0,0,0,14,47.81Z"/><path class="cls-2" d="M23.44,48.29l-1.25,1.16a2.12,2.12,0,0,0-.55-.39,1.6,1.6,0,0,0-.68-.12,1.67,1.67,0,0,0-.82.21,1.57,1.57,0,0,0-.6.6,1.91,1.91,0,0,0-.22.91V55.3H17.67V47.65h1.62v.83a2.22,2.22,0,0,1,.92-.68,3.4,3.4,0,0,1,2.34-.08A2.61,2.61,0,0,1,23.44,48.29Z"/><path class="cls-2" d="M31.25,51.47A6.26,6.26,0,0,1,31,53.24a2.56,2.56,0,0,1-.77,1.24,3.34,3.34,0,0,1-2.46.91,3.35,3.35,0,0,1-2.44-.91,2.7,2.7,0,0,1-.76-1.25,7.48,7.48,0,0,1,0-3.52,2.79,2.79,0,0,1,.76-1.25A3.07,3.07,0,0,1,26,48a4,4,0,0,1,.83-.33,4.19,4.19,0,0,1,2.43.13,3.17,3.17,0,0,1,1,.66A3,3,0,0,1,31,49.71,6.14,6.14,0,0,1,31.25,51.47Zm-1.66,0a5.91,5.91,0,0,0-.11-1.26,1.52,1.52,0,0,0-.46-.84,1.69,1.69,0,0,0-1.21-.43,1.66,1.66,0,0,0-1.2.43,1.61,1.61,0,0,0-.45.84,7.11,7.11,0,0,0,0,2.52,1.48,1.48,0,0,0,.45.83,1.78,1.78,0,0,0,2.39,0,1.5,1.5,0,0,0,.46-.83A5.92,5.92,0,0,0,29.59,51.47Z"/><path class="cls-2" d="M39.83,55.3H38.2v-.82a2.55,2.55,0,0,1-.63.55,2.5,2.5,0,0,1-.7.28,4.78,4.78,0,0,1-.84.08,3.67,3.67,0,0,1-1.14-.18,2.7,2.7,0,0,1-.87-.5,2.21,2.21,0,0,1-.59-.88,4.07,4.07,0,0,1-.27-1.08,13.68,13.68,0,0,1,0-2.56,3.91,3.91,0,0,1,.27-1.07,2.21,2.21,0,0,1,.59-.88,2.33,2.33,0,0,1,.87-.51,3.71,3.71,0,0,1,2.33,0,2.27,2.27,0,0,1,1,.67V44.55h1.66Zm-1.66-3.83A5.45,5.45,0,0,0,38,50.14a1.57,1.57,0,0,0-.5-.87,1.92,1.92,0,0,0-2.15,0,1.61,1.61,0,0,0-.51.88,6.49,6.49,0,0,0-.13,1.32,6.59,6.59,0,0,0,.13,1.33A1.5,1.5,0,0,0,36.47,54a1.37,1.37,0,0,0,1.36-.67A4.24,4.24,0,0,0,38.17,51.47Z"/><path class="cls-2" d="M48.5,55.3H46.88v-.69a2.84,2.84,0,0,1-1,.6,3.73,3.73,0,0,1-1.24.18,4.32,4.32,0,0,1-1.29-.17,2.55,2.55,0,0,1-.92-.52,2.21,2.21,0,0,1-.64-1.65,2,2,0,0,1,.32-1.15,2.17,2.17,0,0,1,1-.77,3.74,3.74,0,0,1,1.55-.28h2.17v-.54a1.33,1.33,0,0,0-.42-1.08A2.22,2.22,0,0,0,45,48.88,2.63,2.63,0,0,0,44,49a2.07,2.07,0,0,0-.74.57l-1.08-1a3.12,3.12,0,0,1,1.23-.86,5,5,0,0,1,1.72-.25q3.39,0,3.39,2.64Zm-1.66-2.76v-.62H44.91a1.68,1.68,0,0,0-1.09.29,1,1,0,0,0-.38.81c0,.73.5,1.09,1.5,1.09a3.32,3.32,0,0,0,.89-.09,1.46,1.46,0,0,0,.66-.35A1.49,1.49,0,0,0,46.84,52.54Z"/><path class="cls-2" d="M52.69,56.31a2.17,2.17,0,0,1-.56,1.53,2.28,2.28,0,0,1-1.69.59h-1V57.12h.72a.78.78,0,0,0,.9-.64,1.13,1.13,0,0,0,0-.26V47.65h1.65Zm.05-10.17H51V44.51h1.75Z"/><path class="cls-2" d="M61.36,55.3H59.74v-.69a2.74,2.74,0,0,1-.94.6,3.73,3.73,0,0,1-1.24.18,4.32,4.32,0,0,1-1.29-.17,2.34,2.34,0,0,1-.92-.52,2.21,2.21,0,0,1-.65-1.65A2,2,0,0,1,56,51.13a3.69,3.69,0,0,1,1.54-.28h2.18v-.54a1.27,1.27,0,0,0-.43-1.08,2.14,2.14,0,0,0-1.37-.35,2.79,2.79,0,0,0-1.07.16,2.13,2.13,0,0,0-.73.57l-1.08-1a3,3,0,0,1,1.23-.86,4.83,4.83,0,0,1,1.73-.2q3.38,0,3.38,2.64Zm-1.65-2.76v-.62H57.78a1.71,1.71,0,0,0-1.1.29,1,1,0,0,0-.37.81c0,.73.5,1.09,1.5,1.09A3.8,3.8,0,0,0,58.7,54a1.28,1.28,0,0,0,1-1.46Z"/><path class="cls-2" d="M69.5,46.14H67.75V44.51H69.5Zm0,9.16H67.8V47.65h1.65Z"/><path class="cls-2" d="M87.63,55.3H86V50.64a1.65,1.65,0,0,0-.46-1.28,1.68,1.68,0,0,0-1.19-.42,1.76,1.76,0,0,0-1.2.43,1.47,1.47,0,0,0-.5,1.2V55.3H81V50.64a1.93,1.93,0,0,0-.22-1,1.33,1.33,0,0,0-.59-.56,2,2,0,0,0-.84-.18,1.74,1.74,0,0,0-1.23.43,1.63,1.63,0,0,0-.48,1.27v4.7H76V47.65h1.62v.77a2.77,2.77,0,0,1,1-.64,3.37,3.37,0,0,1,1.21-.23,2.68,2.68,0,0,1,2.33,1.13,3.27,3.27,0,0,1,2.58-1.13,3,3,0,0,1,2.07.7,2.76,2.76,0,0,1,.87,2.16Z"/><path class="cls-2" d="M96.65,51.47a6.6,6.6,0,0,1-.21,1.77,2.69,2.69,0,0,1-.77,1.24,3.76,3.76,0,0,1-4.9,0A2.8,2.8,0,0,1,90,53.23a7.48,7.48,0,0,1,0-3.52,2.79,2.79,0,0,1,.76-1.25,2.56,2.56,0,0,1,.62-.46,4,4,0,0,1,.83-.33,4.21,4.21,0,0,1,1-.12,3.88,3.88,0,0,1,1.43.25,3,3,0,0,1,1,.66,2.8,2.8,0,0,1,.77,1.25A6.5,6.5,0,0,1,96.65,51.47Zm-1.66,0a5.91,5.91,0,0,0-.11-1.26,1.56,1.56,0,0,0-.46-.84,1.69,1.69,0,0,0-1.21-.43,1.66,1.66,0,0,0-1.2.43,1.61,1.61,0,0,0-.45.84,7.11,7.11,0,0,0,0,2.52,1.48,1.48,0,0,0,.45.83,1.66,1.66,0,0,0,1.2.46,1.64,1.64,0,0,0,1.21-.46,1.5,1.5,0,0,0,.46-.83A5.33,5.33,0,0,0,95,51.47Z"/><path class="cls-2" d="M105.55,55.3H103.9V50.64a2,2,0,0,0-.22-1,1.39,1.39,0,0,0-.59-.56,1.94,1.94,0,0,0-.85-.18,1.76,1.76,0,0,0-1.22.43,1.63,1.63,0,0,0-.48,1.27v4.7H98.89V47.65h1.62v.77a2.53,2.53,0,0,1,1-.64,3.23,3.23,0,0,1,1.19-.23,3,3,0,0,1,2,.7,2.76,2.76,0,0,1,.83,2.16Z"/><path class="cls-2" d="M111.52,55.3h-1a2.45,2.45,0,0,1-1.22-.3,2,2,0,0,1-.77-.78,2.18,2.18,0,0,1-.25-1.06V49h-.93V47.78h.93V45.46h1.65v2.32h1.59V49h-1.59v4.1a.8.8,0,0,0,.7.89h.89Z"/><path class="cls-2" d="M119.67,55.3h-1.62v-.69a2.74,2.74,0,0,1-.94.6,3.73,3.73,0,0,1-1.24.18,4.32,4.32,0,0,1-1.29-.17,2.34,2.34,0,0,1-.92-.52,2.21,2.21,0,0,1-.65-1.65,2,2,0,0,1,1.29-1.92,3.69,3.69,0,0,1,1.54-.28H118v-.54a1.27,1.27,0,0,0-.43-1.08,2.14,2.14,0,0,0-1.37-.35,2.79,2.79,0,0,0-1.07.16,2.13,2.13,0,0,0-.73.57l-1.09-1a3.16,3.16,0,0,1,1.24-.86,5,5,0,0,1,1.72-.25q3.38,0,3.38,2.64ZM118,52.54v-.62h-1.93a1.71,1.71,0,0,0-1.1.29,1,1,0,0,0-.37.81c0,.73.5,1.09,1.5,1.09A3.89,3.89,0,0,0,117,54a1.47,1.47,0,0,0,.65-.35A1.5,1.5,0,0,0,118,52.54Z"/><path class="cls-2" d="M127.72,55.3H121.6V54.08L125.68,49h-3.85V47.65h5.89v1.22l-4.11,5.06h4.11Z"/><path class="cls-2" d="M135.86,55.3h-1.62v-.69a2.74,2.74,0,0,1-.94.6,3.73,3.73,0,0,1-1.24.18,4.32,4.32,0,0,1-1.29-.17,2.34,2.34,0,0,1-.92-.52,2.21,2.21,0,0,1-.65-1.65,2,2,0,0,1,1.29-1.92,3.69,3.69,0,0,1,1.54-.28h2.18v-.54a1.27,1.27,0,0,0-.43-1.08,2.14,2.14,0,0,0-1.37-.35,2.79,2.79,0,0,0-1.07.16,2.13,2.13,0,0,0-.73.57l-1.09-1a3.16,3.16,0,0,1,1.24-.86,5,5,0,0,1,1.72-.25q3.38,0,3.38,2.64Zm-1.65-2.76v-.62h-1.93a1.71,1.71,0,0,0-1.1.29,1,1,0,0,0-.37.81c0,.73.5,1.09,1.5,1.09a3.32,3.32,0,0,0,.89-.09,1.47,1.47,0,0,0,.65-.35A1.5,1.5,0,0,0,134.21,52.54Z"/><path class="cls-2" d="M127.46,44.8l-2,1.93h-1.58l-2-1.93h1.53l1.27,1,1.26-1Z"/></svg>