<svg xmlns="http://www.w3.org/2000/svg" viewBox="0 0 249.98 60.51"><defs><style>.cls-1{fill:none;}.cls-2{fill:#656c70;}.cls-3{fill:#b2b3b2;}</style></defs><title>logotype</title><g id="Layer_2" data-name="Layer 2"><g id="Layer_1-2" data-name="Layer 1"><rect class="cls-1" width="249.98" height="60.51"/><path class="cls-2" d="M21.09,37.86H7.3V34.73l9-13.29H7.68V18H21.09v3.08l-9,13.35h9Z"/><path class="cls-2" d="M40.93,37.86H36.66l-1.24-3.52H28l-1.27,3.52H22.42L30.05,18h3.22Zm-6.6-6.79-2.57-7.23-2.65,7.23Z"/><path class="cls-2" d="M57.11,32a5.18,5.18,0,0,1-2.19,4.43A9.25,9.25,0,0,1,49.33,38c-3.28,0-5.84-.88-7.66-2.63l2.65-2.51a7.08,7.08,0,0,0,5.07,1.67c2.48,0,3.71-.82,3.71-2.45a2.13,2.13,0,0,0-.61-1.67,3.59,3.59,0,0,0-1.89-.71l-2.54-.33q-5.56-.73-5.57-5.56a5.42,5.42,0,0,1,2-4.37,8,8,0,0,1,5.33-1.66,9.64,9.64,0,0,1,6.78,2.32L54,22.56a6.14,6.14,0,0,0-4.3-1.37,3.59,3.59,0,0,0-2.41.71,2.25,2.25,0,0,0-.84,1.8,1.83,1.83,0,0,0,.67,1.45,3.57,3.57,0,0,0,1.9.76l2.47.33a7.47,7.47,0,0,1,4,1.54A5.36,5.36,0,0,1,57.11,32ZM55.17,12.62l-3.89,3.93H48.21l-3.89-3.93h3l2.44,2.09,2.45-2.09Z"/><path class="cls-2" d="M74.45,21.44H69V37.86H64.87V21.44H59.38V18H74.45Z"/><path class="cls-2" d="M81.87,37.86H77.78V18h4.09Z"/><path class="cls-2" d="M100.27,21.44H94.78V37.86H90.69V21.44H85.2V18h15.07Z"/><path class="cls-2" d="M119.66,37.86H116l-8.31-12.2v12.2h-4.1V18h3.65l8.32,12.18V18h4.09Z"/><path class="cls-2" d="M138.38,37.86H124.56V18h13.82v3.47h-9.73V26.1h8.29v3.47h-8.29V34.4h9.73Z"/><path class="cls-2" d="M163.05,21.44h-9.72v4.89h8.28v3.46h-8.28v8.07h-4.1V18h13.82Z"/><path class="cls-2" d="M181.42,27.92a24.79,24.79,0,0,1-.27,4.49,6.12,6.12,0,0,1-1.82,3.44,8.48,8.48,0,0,1-11.35,0,6.18,6.18,0,0,1-1.83-3.44,27.5,27.5,0,0,1-.24-4.49,27.73,27.73,0,0,1,.24-4.5A6.15,6.15,0,0,1,168,20a8.48,8.48,0,0,1,11.35,0,6.09,6.09,0,0,1,1.82,3.43A25,25,0,0,1,181.42,27.92Zm-4.1,0q0-2.3-.06-2.91a4.46,4.46,0,0,0-1-2.68,3.43,3.43,0,0,0-2.62-1.06A3.47,3.47,0,0,0,171,22.33a4.59,4.59,0,0,0-.94,2.68q-.06.51-.06,2.91c0,1.6,0,2.57.06,2.9A4.59,4.59,0,0,0,171,33.5a3.47,3.47,0,0,0,2.66,1.06,3.37,3.37,0,0,0,2.85-1.34C177.06,32.54,177.32,30.77,177.32,27.92Z"/><path class="cls-2" d="M199.22,37.86H185.6V18h4.1V34.4h9.52Z"/><path class="cls-2" d="M206.65,37.86h-4.1V18h4.1Z"/><path class="cls-2" d="M222,31.32a6.14,6.14,0,0,1-2.24,5A7.83,7.83,0,0,1,214.61,38a7.52,7.52,0,0,1-5.39-2l2.71-2.54a3.8,3.8,0,0,0,2.68,1.11q3.3,0,3.3-3.4V18H222Z"/><path class="cls-2" d="M240.43,37.86H226.61V18h13.82v3.47H230.7V26.1H239v3.47H230.7V34.4h9.73Z"/><path class="cls-3" d="M15.74,47.81a3.2,3.2,0,0,1-.45,1.68A3.13,3.13,0,0,1,14,50.65a4.18,4.18,0,0,1-2,.43H9.42V55.3H7.66V44.55H12a4.45,4.45,0,0,1,1.52.25,3.37,3.37,0,0,1,1.19.68,3.11,3.11,0,0,1,.74,1A3.38,3.38,0,0,1,15.74,47.81Zm-1.75,0a1.65,1.65,0,0,0-.56-1.31A2.18,2.18,0,0,0,12,46H9.42V49.6H12a2.21,2.21,0,0,0,1.49-.48A1.63,1.63,0,0,0,14,47.81Z"/><path class="cls-3" d="M23.44,48.29l-1.25,1.16a2,2,0,0,0-.55-.39,1.63,1.63,0,0,0-.68-.12,1.67,1.67,0,0,0-.82.21,1.64,1.64,0,0,0-.6.6,1.88,1.88,0,0,0-.22.91V55.3H17.67V47.65h1.62v.83a2.26,2.26,0,0,1,.92-.68,3.31,3.31,0,0,1,1.27-.25,3.2,3.2,0,0,1,1.07.17A2.58,2.58,0,0,1,23.44,48.29Z"/><path class="cls-3" d="M31.25,51.47A6.31,6.31,0,0,1,31,53.24a2.63,2.63,0,0,1-.77,1.24,3.35,3.35,0,0,1-2.46.91,3.34,3.34,0,0,1-2.44-.91,2.67,2.67,0,0,1-.76-1.25,6.28,6.28,0,0,1-.21-1.76,6.43,6.43,0,0,1,.21-1.76,2.75,2.75,0,0,1,.76-1.25A2.85,2.85,0,0,1,26,48a3.68,3.68,0,0,1,.83-.33,4.22,4.22,0,0,1,2.43.13,3.1,3.1,0,0,1,1,.66A2.88,2.88,0,0,1,31,49.71,6.28,6.28,0,0,1,31.25,51.47Zm-1.66,0a5.67,5.67,0,0,0-.11-1.26,1.52,1.52,0,0,0-.46-.84,1.66,1.66,0,0,0-1.21-.43,1.68,1.68,0,0,0-1.2.43,1.57,1.57,0,0,0-.45.84,7.27,7.27,0,0,0,0,2.52,1.5,1.5,0,0,0,.45.83,1.68,1.68,0,0,0,1.2.46A1.64,1.64,0,0,0,29,53.56a1.46,1.46,0,0,0,.46-.83A5.67,5.67,0,0,0,29.59,51.47Z"/><path class="cls-3" d="M39.83,55.3H38.2v-.82a2.44,2.44,0,0,1-.63.55,2.5,2.5,0,0,1-.7.28,4.2,4.2,0,0,1-.84.08,3.49,3.49,0,0,1-1.14-.18,2.62,2.62,0,0,1-.87-.5,2.24,2.24,0,0,1-.59-.88,4,4,0,0,1-.27-1.08,13.68,13.68,0,0,1,0-2.56,3.91,3.91,0,0,1,.27-1.07,2.24,2.24,0,0,1,.59-.88,2.33,2.33,0,0,1,.87-.51,3.67,3.67,0,0,1,2.33,0,2.37,2.37,0,0,1,1,.67V44.55h1.66Zm-1.66-3.83A5.7,5.7,0,0,0,38,50.14a1.55,1.55,0,0,0-.5-.87,1.92,1.92,0,0,0-2.15,0,1.54,1.54,0,0,0-.51.88,6.13,6.13,0,0,0-.13,1.32,6.23,6.23,0,0,0,.13,1.33A1.49,1.49,0,0,0,36.47,54a1.37,1.37,0,0,0,1.36-.67A4.21,4.21,0,0,0,38.17,51.47Z"/><path class="cls-3" d="M48.5,55.3H46.88v-.69a2.9,2.9,0,0,1-1,.6,3.61,3.61,0,0,1-1.24.18,4.53,4.53,0,0,1-1.29-.17,2.51,2.51,0,0,1-.92-.52,2.2,2.2,0,0,1-.64-1.65,2,2,0,0,1,.32-1.15,2.13,2.13,0,0,1,1-.77,3.8,3.8,0,0,1,1.55-.28h2.17v-.54a1.32,1.32,0,0,0-.42-1.08,2.19,2.19,0,0,0-1.37-.35A2.77,2.77,0,0,0,44,49a2.11,2.11,0,0,0-.74.57l-1.08-1a3.11,3.11,0,0,1,1.23-.86,4.92,4.92,0,0,1,1.72-.25q3.39,0,3.39,2.64Zm-1.66-2.76v-.62H44.91a1.71,1.71,0,0,0-1.09.29,1,1,0,0,0-.38.81c0,.73.5,1.09,1.5,1.09a3.7,3.7,0,0,0,.89-.09,1.42,1.42,0,0,0,.66-.35A1.49,1.49,0,0,0,46.84,52.54Z"/><path class="cls-3" d="M52.69,56.31a2.17,2.17,0,0,1-.56,1.53,2.27,2.27,0,0,1-1.69.59h-1V57.12h.72a.78.78,0,0,0,.9-.9V47.65h1.65Zm.05-10.17H51V44.51h1.75Z"/><path class="cls-3" d="M61.36,55.3H59.74v-.69a2.77,2.77,0,0,1-.94.6,3.65,3.65,0,0,1-1.24.18,4.43,4.43,0,0,1-1.29-.17,2.43,2.43,0,0,1-.92-.52,2.21,2.21,0,0,1-.65-1.65A2,2,0,0,1,56,51.13a3.75,3.75,0,0,1,1.54-.28h2.18v-.54a1.29,1.29,0,0,0-.43-1.08,2.17,2.17,0,0,0-1.37-.35,2.84,2.84,0,0,0-1.07.16,2.08,2.08,0,0,0-.73.57l-1.08-1a3,3,0,0,1,1.23-.86A4.92,4.92,0,0,1,58,47.55q3.38,0,3.38,2.64Zm-1.65-2.76v-.62H57.78a1.74,1.74,0,0,0-1.1.29,1,1,0,0,0-.37.81c0,.73.5,1.09,1.5,1.09A3.75,3.75,0,0,0,58.7,54a1.43,1.43,0,0,0,.65-.35A1.49,1.49,0,0,0,59.71,52.54Z"/><path class="cls-3" d="M69.5,46.14H67.75V44.51H69.5Zm0,9.16H67.8V47.65h1.65Z"/><path class="cls-3" d="M87.63,55.3H86V50.64a1.64,1.64,0,0,0-.46-1.28,1.68,1.68,0,0,0-1.19-.42,1.75,1.75,0,0,0-1.2.43,1.49,1.49,0,0,0-.5,1.2V55.3H81V50.64a1.89,1.89,0,0,0-.22-1,1.33,1.33,0,0,0-.59-.56,1.92,1.92,0,0,0-.84-.18,1.76,1.76,0,0,0-1.23.43,1.62,1.62,0,0,0-.48,1.27V55.3H76V47.65h1.62v.77a2.73,2.73,0,0,1,1-.64,3.26,3.26,0,0,1,1.21-.23,2.66,2.66,0,0,1,2.33,1.13,3.28,3.28,0,0,1,2.58-1.13,3,3,0,0,1,2.07.7,2.75,2.75,0,0,1,.87,2.16Z"/><path class="cls-3" d="M96.65,51.47a6.31,6.31,0,0,1-.21,1.77,2.71,2.71,0,0,1-.77,1.24,3.75,3.75,0,0,1-4.9,0A2.77,2.77,0,0,1,90,53.23a6.28,6.28,0,0,1-.21-1.76A6.4,6.4,0,0,1,90,49.71a2.75,2.75,0,0,1,.76-1.25,2.63,2.63,0,0,1,.62-.46,3.68,3.68,0,0,1,.83-.33,4,4,0,0,1,1-.12,3.89,3.89,0,0,1,1.43.25,3,3,0,0,1,1,.66,2.88,2.88,0,0,1,.77,1.25A6.28,6.28,0,0,1,96.65,51.47Zm-1.66,0a5.67,5.67,0,0,0-.11-1.26,1.58,1.58,0,0,0-.46-.84,1.66,1.66,0,0,0-1.21-.43,1.68,1.68,0,0,0-1.2.43,1.57,1.57,0,0,0-.45.84,7.27,7.27,0,0,0,0,2.52,1.5,1.5,0,0,0,.45.83,1.68,1.68,0,0,0,1.2.46,1.64,1.64,0,0,0,1.21-.46,1.52,1.52,0,0,0,.46-.83A5.67,5.67,0,0,0,95,51.47Z"/><path class="cls-3" d="M105.55,55.3H103.9V50.64a2,2,0,0,0-.22-1,1.38,1.38,0,0,0-.59-.56,1.93,1.93,0,0,0-.85-.18,1.75,1.75,0,0,0-1.22.43,1.62,1.62,0,0,0-.48,1.27V55.3H98.89V47.65h1.62v.77a2.57,2.57,0,0,1,1-.64,3.23,3.23,0,0,1,1.19-.23,2.93,2.93,0,0,1,2,.7,2.77,2.77,0,0,1,.83,2.16Z"/><path class="cls-3" d="M111.52,55.3h-1A2.49,2.49,0,0,1,109.3,55a2,2,0,0,1-.77-.78,2.24,2.24,0,0,1-.25-1.06V49h-.93V47.78h.93V45.46h1.65v2.32h1.59V49h-1.59V53.1a.8.8,0,0,0,.91.89h.68Z"/><path class="cls-3" d="M119.67,55.3h-1.62v-.69a2.77,2.77,0,0,1-.94.6,3.65,3.65,0,0,1-1.24.18,4.43,4.43,0,0,1-1.29-.17,2.43,2.43,0,0,1-.92-.52,2.21,2.21,0,0,1-.65-1.65,2,2,0,0,1,1.29-1.92,3.75,3.75,0,0,1,1.54-.28H118v-.54a1.29,1.29,0,0,0-.43-1.08,2.17,2.17,0,0,0-1.37-.35,2.8,2.8,0,0,0-1.07.16,2.08,2.08,0,0,0-.73.57l-1.09-1a3.13,3.13,0,0,1,1.24-.86,4.92,4.92,0,0,1,1.72-.25q3.38,0,3.38,2.64ZM118,52.54v-.62h-1.93a1.74,1.74,0,0,0-1.1.29,1,1,0,0,0-.37.81c0,.73.5,1.09,1.5,1.09A3.75,3.75,0,0,0,117,54a1.43,1.43,0,0,0,.65-.35A1.49,1.49,0,0,0,118,52.54Z"/><path class="cls-3" d="M127.72,55.3H121.6V54.08L125.68,49h-3.85V47.65h5.89v1.22l-4.11,5.06h4.11Z"/><path class="cls-3" d="M135.86,55.3h-1.62v-.69a2.77,2.77,0,0,1-.94.6,3.65,3.65,0,0,1-1.24.18,4.43,4.43,0,0,1-1.29-.17,2.43,2.43,0,0,1-.92-.52,2.21,2.21,0,0,1-.65-1.65,2,2,0,0,1,1.29-1.92,3.75,3.75,0,0,1,1.54-.28h2.18v-.54a1.29,1.29,0,0,0-.43-1.08,2.17,2.17,0,0,0-1.37-.35,2.8,2.8,0,0,0-1.07.16,2,2,0,0,0-.73.57l-1.09-1a3.13,3.13,0,0,1,1.24-.86,4.92,4.92,0,0,1,1.72-.25q3.38,0,3.38,2.64Zm-1.65-2.76v-.62h-1.93a1.74,1.74,0,0,0-1.1.29,1,1,0,0,0-.37.81c0,.73.5,1.09,1.5,1.09a3.75,3.75,0,0,0,.89-.09,1.43,1.43,0,0,0,.65-.35A1.49,1.49,0,0,0,134.21,52.54Z"/><path class="cls-3" d="M127.46,44.8l-2,1.93h-1.58l-2-1.93h1.53l1.27,1,1.26-1Z"/></g></g></svg>