<svg xmlns="http://www.w3.org/2000/svg" width="80" height="80" viewBox="0 0 80 80">
  <g id="Group_201" data-name="Group 201" transform="translate(-514 -1084)">
    <rect id="Rectangle_203" data-name="Rectangle 203" width="80" height="80" transform="translate(514 1084)" fill="none"/>
    <path id="Path_280" data-name="Path 280" d="M40.84-26.445q-.791-.264-1.582-.5c.088-.361.166-.723.244-1.084,1.2-5.82.41-10.5-2.256-12.041-2.568-1.475-6.758.059-11,3.75-.42.361-.83.742-1.221,1.123-.264-.254-.537-.508-.811-.752-4.443-3.945-8.9-5.606-11.563-4.053-2.559,1.484-3.32,5.889-2.246,11.4.107.547.225,1.084.361,1.631-.625.176-1.24.371-1.816.576C3.74-24.59,0-21.738,0-18.789c0,3.047,3.984,6.1,9.4,7.959.439.146.879.293,1.328.42-.146.586-.274,1.162-.391,1.758-1.025,5.42-.225,9.717,2.334,11.191,2.637,1.523,7.07-.039,11.387-3.818.342-.3.684-.615,1.025-.947.43.42.879.82,1.328,1.211,4.18,3.594,8.311,5.049,10.859,3.574,2.637-1.523,3.5-6.143,2.383-11.768q-.132-.645-.293-1.318c.313-.088.615-.186.918-.283C45.918-12.676,50-15.693,50-18.789,50-21.748,46.152-24.619,40.84-26.445ZM27.627-34.736c3.633-3.164,7.021-4.4,8.564-3.516,1.65.947,2.285,4.775,1.25,9.8-.068.332-.137.654-.225.977a49.989,49.989,0,0,0-6.572-1.035,49.353,49.353,0,0,0-4.16-5.186C26.865-34.053,27.236-34.395,27.627-34.736Zm-11.3,21.016c.5.85,1.006,1.7,1.543,2.529a44.237,44.237,0,0,1-4.531-.732,45.609,45.609,0,0,1,1.592-4.346C15.381-15.41,15.84-14.561,16.328-13.721ZM13.369-25.469c1.406-.313,2.9-.566,4.453-.762-.518.811-1.025,1.641-1.5,2.48s-.947,1.68-1.387,2.539C14.316-22.666,13.8-24.092,13.369-25.469Zm2.676,6.728c.645-1.348,1.348-2.666,2.09-3.965s1.543-2.559,2.383-3.8c1.465-.107,2.959-.166,4.482-.166s3.027.059,4.482.166q1.245,1.846,2.373,3.779t2.119,3.945q-.981,2.021-2.109,3.984c-.742,1.3-1.533,2.559-2.363,3.809-1.455.107-2.969.156-4.5.156s-3.018-.049-4.453-.137q-1.274-1.86-2.4-3.809C17.393-16.074,16.7-17.393,16.045-18.74Zm17.637,5c.5-.859.967-1.729,1.426-2.607a45.329,45.329,0,0,1,1.65,4.326,42.914,42.914,0,0,1-4.59.781C32.7-12.061,33.193-12.9,33.682-13.74Zm1.406-7.471c-.459-.859-.928-1.719-1.416-2.559s-.977-1.65-1.494-2.461a44.922,44.922,0,0,1,4.482.781A43.221,43.221,0,0,1,35.088-21.211ZM25.02-32.2a42.9,42.9,0,0,1,2.891,3.5c-1.934-.088-3.877-.088-5.811,0C23.057-29.961,24.043-31.133,25.02-32.2ZM13.691-38.184c1.641-.957,5.283.41,9.121,3.809.244.215.488.449.742.684a49.628,49.628,0,0,0-4.189,5.186A51.473,51.473,0,0,0,12.8-27.49c-.127-.5-.234-1.006-.342-1.514C11.543-33.731,12.148-37.295,13.691-38.184ZM11.3-12.441c-.41-.117-.811-.244-1.211-.381a19.917,19.917,0,0,1-6.152-3.047A4.382,4.382,0,0,1,2.1-18.789c0-1.787,3.086-4.072,7.539-5.625.557-.2,1.123-.371,1.689-.537a51.92,51.92,0,0,0,2.393,6.211A53.38,53.38,0,0,0,11.3-12.441Zm11.387,9.57A17.874,17.874,0,0,1,17.178.576,4.323,4.323,0,0,1,13.73.7c-1.553-.9-2.2-4.346-1.318-8.984.107-.547.225-1.094.361-1.631a48.861,48.861,0,0,0,6.631.957A51.535,51.535,0,0,0,23.623-3.74C23.311-3.438,23-3.145,22.686-2.871Zm2.393-2.373c-1-1.074-1.992-2.266-2.959-3.545.937.039,1.9.059,2.881.059,1.006,0,1.992-.019,2.969-.068A42.124,42.124,0,0,1,25.078-5.244Zm12.764,2.93A4.34,4.34,0,0,1,36.23.742c-1.553.9-4.863-.273-8.438-3.34-.41-.352-.82-.732-1.24-1.123a48.315,48.315,0,0,0,4.121-5.234,48.123,48.123,0,0,0,6.66-1.025c.1.4.186.8.264,1.191A17.8,17.8,0,0,1,37.842-2.314Zm1.777-10.5c-.273.088-.547.176-.83.254a49.615,49.615,0,0,0-2.49-6.231,49.36,49.36,0,0,0,2.393-6.143c.508.146,1,.3,1.465.459,4.551,1.563,7.744,3.887,7.744,5.664C47.9-16.895,44.492-14.424,39.619-12.813ZM25-14.277a4.472,4.472,0,0,0,4.473-4.473A4.472,4.472,0,0,0,25-23.223a4.472,4.472,0,0,0-4.473,4.473A4.472,4.472,0,0,0,25-14.277Z" transform="translate(529 1142.624)" fill="#ffb400"/>
  </g>
</svg>
