<?xml version="1.0" encoding="utf-8"?>
<!-- Generator: Adobe Illustrator 24.2.0, SVG Export Plug-In . SVG Version: 6.00 Build 0)  -->
<svg version="1.1" id="Layer_1" xmlns="http://www.w3.org/2000/svg" xmlns:xlink="http://www.w3.org/1999/xlink" x="0px" y="0px"
	 viewBox="0 0 80 80" style="enable-background:new 0 0 80 80;" xml:space="preserve">
<style type="text/css">
	.st0{fill:none;}
	.st1{fill:#FFB400;}
</style>
<g id="Group_200" transform="translate(-514 -987)">
	<rect id="Rectangle_202" x="514" y="987" class="st0" width="80" height="80"/>
	<path id="Path_278" class="st1" d="M556.1,1004.6c0-1.3-1.1-2.3-2.4-2.3c-0.8,0-1.5,0.4-2,1.1c-12.1,17.7,5.1,18.5,5.1,27.1
		c0,3.5-2.8,6.2-6.2,6.2c0,0-0.1,0-0.1,0c-3.4-0.1-6.2-2.9-6.2-6.3v-8.4c0-1.3-1.1-2.3-2.3-2.3c-0.6,0-1.3,0.3-1.7,0.7
		c-3.4,3.6-5.3,8.3-5.3,13.2c0,10.4,8.4,18.7,18.8,18.8c10.4,0,18.7-8.4,18.8-18.8C572.5,1016.9,556.1,1014.7,556.1,1004.6z"/>
</g>
</svg>
