<svg xmlns="http://www.w3.org/2000/svg" width="80" height="80" viewBox="0 0 80 80">
  <g id="Group_204" data-name="Group 204" transform="translate(-928 -987)">
    <rect id="Rectangle_205" data-name="Rectangle 205" width="80" height="80" transform="translate(928 987)" fill="none"/>
    <g id="Group_203" data-name="Group 203" transform="translate(-0.332 1.768)">
      <path id="Path_277" data-name="Path 277" d="M7.144-3.534H5.092V0H1.33V-13.3H7.41a7.586,7.586,0,0,1,3.135.6,4.649,4.649,0,0,1,2.052,1.71,4.688,4.688,0,0,1,.722,2.613,4.632,4.632,0,0,1-.674,2.518A4.562,4.562,0,0,1,10.716-4.18L13.585,0H9.557ZM9.519-8.379A1.813,1.813,0,0,0,8.93-9.823a2.6,2.6,0,0,0-1.748-.513H5.092v3.895h2.09a2.628,2.628,0,0,0,1.748-.5A1.784,1.784,0,0,0,9.519-8.379ZM20.387.171A6.426,6.426,0,0,1,17.4-.513a5.162,5.162,0,0,1-2.08-1.9,5.138,5.138,0,0,1-.75-2.755,5.1,5.1,0,0,1,.75-2.736,5.111,5.111,0,0,1,2.071-1.891,6.485,6.485,0,0,1,2.993-.674,6.543,6.543,0,0,1,3,.674A5.053,5.053,0,0,1,25.46-7.914,5.139,5.139,0,0,1,26.2-5.168a5.188,5.188,0,0,1-.741,2.755,5.1,5.1,0,0,1-2.071,1.9A6.468,6.468,0,0,1,20.387.171Zm0-2.869a2.03,2.03,0,0,0,1.558-.655,2.566,2.566,0,0,0,.608-1.815,2.5,2.5,0,0,0-.608-1.786A2.045,2.045,0,0,0,20.387-7.6a2.045,2.045,0,0,0-1.558.646,2.5,2.5,0,0,0-.608,1.786,2.566,2.566,0,0,0,.608,1.815A2.03,2.03,0,0,0,20.387-2.7ZM40.7-13.3V0H36.936V-5.187h-5.13V0H28.044V-13.3h3.762v5h5.13v-5ZM48.032.266a12.3,12.3,0,0,1-3.135-.4A7.711,7.711,0,0,1,42.427-1.2l1.235-2.774a7.991,7.991,0,0,0,2.071.95,7.884,7.884,0,0,0,2.318.361q2.166,0,2.166-1.083a.9.9,0,0,0-.618-.845,11.356,11.356,0,0,0-1.986-.58,18.951,18.951,0,0,1-2.508-.694,4.221,4.221,0,0,1-1.729-1.187,3.209,3.209,0,0,1-.722-2.2,3.816,3.816,0,0,1,.665-2.194A4.45,4.45,0,0,1,45.306-13a8.172,8.172,0,0,1,3.24-.57,11.427,11.427,0,0,1,2.584.295,7.913,7.913,0,0,1,2.242.864L52.212-9.614a7.743,7.743,0,0,0-3.686-1.026,3.09,3.09,0,0,0-1.634.332,1,1,0,0,0-.513.865.857.857,0,0,0,.608.8,10.993,10.993,0,0,0,1.957.551,18.333,18.333,0,0,1,2.518.694A4.347,4.347,0,0,1,53.19-6.223a3.146,3.146,0,0,1,.732,2.194,3.741,3.741,0,0,1-.665,2.166A4.533,4.533,0,0,1,51.262-.313,8.069,8.069,0,0,1,48.032.266Z" transform="translate(941 1047)" fill="#ffb400"/>
      <path id="Path_276" data-name="Path 276" d="M7.236.838q-3.936,0-5.357-4.8a29,29,0,0,1-.838-8,11.533,11.533,0,0,1,1.041-5.1,4.23,4.23,0,0,1,4.012-2.691q2.006,0,2.691,2.387L9.369-12.9q.3,2.438,1.5,2.488L29.529-28.336a2.4,2.4,0,0,1,1.676-.432q1.6,0,1.6,1.168v3.1a2.883,2.883,0,0,1-.762,2.133L11.223-1.193A5.672,5.672,0,0,1,7.236.838Z" transform="translate(951 1031)" fill="#ffb400"/>
    </g>
  </g>
</svg>
