<svg xmlns="http://www.w3.org/2000/svg" viewBox="0 0 12 12"><defs><style>.cls-1{fill:none;}.cls-2,.cls-3{fill:#888;}.cls-3{fill-rule:evenodd;}</style></defs><g id="Layer_2" data-name="Layer 2"><g id="Layer_1-2" data-name="Layer 1"><rect class="cls-1" width="12" height="12"/><path class="cls-2" d="M6.38,3.94A.38.38,0,0,1,6,4.31a.38.38,0,0,1,0-.75A.38.38,0,0,1,6.38,3.94Zm3.75,4.5a.38.38,0,1,1,0-.75.38.38,0,0,1,0,.75Zm-8.25,0a.38.38,0,1,1,0-.75.38.38,0,0,1,0,.75Zm7.3-3a.37.37,0,1,1-.54-.52h0a.37.37,0,0,1,.53.53Zm-6.36,0a.37.37,0,0,1,0-.53.38.38,0,0,1,.53,0h0a.37.37,0,0,1-.53.53Z"/><path class="cls-3" d="M3,8.06a3,3,0,1,1,6,0,.38.38,0,0,1-.37.38H3.38A.38.38,0,0,1,3,8.06Z"/></g></g></svg>