<svg xmlns="http://www.w3.org/2000/svg" viewBox="0 0 12 12"><defs><style>.cls-1{fill:none;}.cls-2{fill:#888;}</style></defs><g id="Layer_2" data-name="Layer 2"><g id="Layer_1-2" data-name="Layer 1"><rect class="cls-1" width="12" height="12"/><path class="cls-2" d="M9.48,9.19a3.05,3.05,0,0,1-1.34.88,5.6,5.6,0,0,1-1.92.31A3.86,3.86,0,0,1,4.27,9.9,3.23,3.23,0,0,1,3,8.5a4.92,4.92,0,0,1-.47-2.17V5.75A5.22,5.22,0,0,1,3,3.54,3.22,3.22,0,0,1,4.19,2.11a3.59,3.59,0,0,1,1.9-.49,3.58,3.58,0,0,1,2.38.72,3.08,3.08,0,0,1,1,2.11H7.77a1.67,1.67,0,0,0-.52-1.07A1.63,1.63,0,0,0,6.15,3a1.56,1.56,0,0,0-1.37.67,3.54,3.54,0,0,0-.47,2v.55a3.4,3.4,0,0,0,.51,2A1.75,1.75,0,0,0,6.31,9a2,2,0,0,0,1.41-.42V7.08H6.12V5.78H9.48Z"/></g></g></svg>