<svg xmlns="http://www.w3.org/2000/svg" viewBox="0 0 12 12"><defs><style>.cls-1{fill:none;}.cls-2{fill:#888;}</style></defs><g id="Layer_2" data-name="Layer 2"><g id="Layer_1-2" data-name="Layer 1"><rect class="cls-1" width="12" height="12"/><path class="cls-2" d="M10.68,9.67H.89a.3.3,0,0,1-.31-.3.31.31,0,0,1,.31-.31h9.79a.31.31,0,0,1,.31.31A.3.3,0,0,1,10.68,9.67Z"/><path class="cls-2" d="M5.78,8.45a.3.3,0,0,1-.21-.09L.67,3.46A.3.3,0,0,1,1.1,3L6,7.93a.3.3,0,0,1,0,.43A.31.31,0,0,1,5.78,8.45Z"/><path class="cls-2" d="M10.55,3.68a.3.3,0,0,1-.21-.09.3.3,0,0,1,0-.43l.43-.44a.3.3,0,0,1,.43,0,.31.31,0,0,1,0,.44l-.43.43A.31.31,0,0,1,10.55,3.68Z"/><path class="cls-2" d="M7.08,7.15a.3.3,0,0,1-.21-.09.3.3,0,0,1,0-.43l.86-.87a.31.31,0,0,1,.44,0,.3.3,0,0,1,0,.43l-.87.87A.31.31,0,0,1,7.08,7.15ZM8.82,5.41a.31.31,0,0,1-.22-.09.3.3,0,0,1,0-.43L9.47,4A.3.3,0,0,1,9.9,4a.31.31,0,0,1,0,.44L9,5.32A.31.31,0,0,1,8.82,5.41Z"/><path class="cls-2" d="M5.78,8.45a.3.3,0,0,1-.21-.09.3.3,0,0,1,0-.43L6,7.49a.3.3,0,0,1,.43,0,.31.31,0,0,1,0,.44L6,8.36A.31.31,0,0,1,5.78,8.45Z"/><path class="cls-2" d="M11.29,4.16a.29.29,0,0,1-.3-.3V2.94h-.92a.31.31,0,0,1-.31-.31.3.3,0,0,1,.31-.3h1.22a.3.3,0,0,1,.31.3V3.86A.3.3,0,0,1,11.29,4.16Z"/></g></g></svg>