<svg xmlns="http://www.w3.org/2000/svg" viewBox="0 0 12 12"><defs><style>.cls-1{fill:none;}.cls-2,.cls-3{fill:#888;}.cls-3{fill-rule:evenodd;}</style></defs><g id="Layer_2" data-name="Layer 2"><g id="Layer_1-2" data-name="Layer 1"><rect class="cls-1" width="12" height="12"/><circle class="cls-2" cx="6" cy="6" r="3"/><path class="cls-3" d="M6,0a.38.38,0,0,1,.38.38v1.5A.38.38,0,0,1,6,2.25a.37.37,0,0,1-.37-.37V.38A.37.37,0,0,1,6,0ZM6,9.75a.38.38,0,0,1,.38.38v1.5A.38.38,0,0,1,6,12a.37.37,0,0,1-.37-.37v-1.5A.37.37,0,0,1,6,9.75ZM12,6a.38.38,0,0,1-.37.38h-1.5A.38.38,0,0,1,9.75,6a.37.37,0,0,1,.38-.37h1.5A.37.37,0,0,1,12,6ZM2.25,6a.38.38,0,0,1-.37.38H.38A.38.38,0,0,1,0,6a.37.37,0,0,1,.38-.37h1.5A.37.37,0,0,1,2.25,6Zm8-4.24a.37.37,0,0,1,0,.53L9.18,3.35a.37.37,0,0,1-.53,0,.39.39,0,0,1,0-.53L9.71,1.76A.37.37,0,0,1,10.24,1.76ZM3.35,8.65a.39.39,0,0,1,0,.53L2.29,10.24a.37.37,0,0,1-.53,0,.37.37,0,0,1,0-.52L2.82,8.65A.39.39,0,0,1,3.35,8.65Zm6.89,1.59a.37.37,0,0,1-.53,0L8.65,9.18a.37.37,0,0,1,.53-.53l1.06,1.06A.37.37,0,0,1,10.24,10.24ZM3.35,3.35a.37.37,0,0,1-.53,0L1.76,2.29a.37.37,0,0,1,0-.53.37.37,0,0,1,.52,0L3.35,2.82a.39.39,0,0,1,0,.53Z"/></g></g></svg>