<svg xmlns="http://www.w3.org/2000/svg" viewBox="0 0 12 12"><defs><style>.cls-1{fill:none;}.cls-2{fill:#888;fill-rule:evenodd;}</style></defs><g id="Layer_2" data-name="Layer 2"><g id="Layer_1-2" data-name="Layer 1"><rect class="cls-1" width="12" height="12"/><path class="cls-2" d="M3,7.5A1.5,1.5,0,1,0,1.5,6,1.5,1.5,0,0,0,3,7.5Zm0,.75A2.25,2.25,0,1,0,.75,6,2.25,2.25,0,0,0,3,8.25ZM9,7.5A1.5,1.5,0,1,0,7.5,6,1.5,1.5,0,0,0,9,7.5Zm0,.75A2.25,2.25,0,1,0,6.75,6,2.25,2.25,0,0,0,9,8.25Z"/><path class="cls-2" d="M6,5.25A.76.76,0,0,0,5.25,6H4.5a1.5,1.5,0,0,1,3,0H6.75A.76.76,0,0,0,6,5.25ZM0,6a.37.37,0,0,1,.38-.37h.75v.75H.38A.38.38,0,0,1,0,6Zm11.63.38h-.75V5.63h.75A.37.37,0,0,1,12,6,.38.38,0,0,1,11.63,6.38Z"/></g></g></svg>