<svg xmlns="http://www.w3.org/2000/svg" viewBox="0 0 12 12"><defs><style>.cls-1{fill:none;}.cls-2{fill:#888;fill-rule:evenodd;}</style></defs><g id="Layer_2" data-name="Layer 2"><g id="Layer_1-2" data-name="Layer 1"><rect class="cls-1" width="12" height="12"/><path class="cls-2" d="M3.78,8.44H8.22a2.25,2.25,0,0,0-4.44,0ZM3,8.81a3,3,0,1,1,6,0,.38.38,0,0,1-.37.38H3.38A.38.38,0,0,1,3,8.81Zm3-6a.38.38,0,0,1,.38.38v1.5A.38.38,0,0,1,6,5.06a.37.37,0,0,1-.37-.37V3.19A.37.37,0,0,1,6,2.81Zm6,6a.38.38,0,0,1-.37.38h-1.5a.38.38,0,1,1,0-.75h1.5A.38.38,0,0,1,12,8.81Zm-9.75,0a.38.38,0,0,1-.37.38H.38a.38.38,0,1,1,0-.75h1.5A.38.38,0,0,1,2.25,8.81Zm8-4.24a.37.37,0,0,1,0,.53L9.18,6.16a.37.37,0,1,1-.54-.52h0L9.71,4.57A.37.37,0,0,1,10.24,4.57ZM3.35,6.16a.37.37,0,0,1-.53,0L1.76,5.1a.37.37,0,0,1,0-.53.37.37,0,0,1,.52,0L3.35,5.63A.39.39,0,0,1,3.35,6.16Z"/></g></g></svg>