<svg xmlns="http://www.w3.org/2000/svg" viewBox="0 0 12 12"><defs><style>.cls-1{fill:none;}.cls-2,.cls-3{fill:#888;}.cls-2{fill-rule:evenodd;}</style></defs><g id="Layer_2" data-name="Layer 2"><g id="Layer_1-2" data-name="Layer 1"><rect class="cls-1" width="12" height="12"/><path class="cls-2" d="M2.29,2.29a5.24,5.24,0,0,0,0,7.42h0a.37.37,0,0,1-.53.53,6,6,0,0,1,0-8.48h0a.37.37,0,0,1,.53.53ZM3.88,3.88a3,3,0,0,0,0,4.24.37.37,0,1,1-.53.53,3.74,3.74,0,0,1,0-5.3h0a.37.37,0,0,1,.53.53Zm4.24-.53a.37.37,0,0,1,.53,0h0a3.74,3.74,0,0,1,0,5.3h0a.37.37,0,0,1-.53-.53,3,3,0,0,0,0-4.24.37.37,0,0,1,0-.53ZM9.71,1.76a.37.37,0,0,1,.53,0,6,6,0,0,1,0,8.48.38.38,0,0,1-.53,0,.39.39,0,0,1,0-.53,5.24,5.24,0,0,0,0-7.42h0a.39.39,0,0,1,0-.53Z"/><path class="cls-3" d="M7.5,6A1.5,1.5,0,1,1,6,4.5,1.5,1.5,0,0,1,7.5,6Z"/></g></g></svg>