<svg xmlns="http://www.w3.org/2000/svg" viewBox="0 0 12 12"><defs><style>.cls-1{fill:none;}.cls-2{fill:#888;fill-rule:evenodd;}</style></defs><g id="Layer_2" data-name="Layer 2"><g id="Layer_1-2" data-name="Layer 1"><rect class="cls-1" width="12" height="12"/><path class="cls-2" d="M4.77,3.48a.39.39,0,0,0-.53,0h0L2,5.73a.39.39,0,0,0,0,.53H2L4.23,8.52A.38.38,0,0,0,4.77,8l-2-2,2-2a.39.39,0,0,0,0-.53Z"/><path class="cls-2" d="M7.88,6a.37.37,0,0,0-.38-.37H2.63A.37.37,0,0,0,2.25,6a.38.38,0,0,0,.38.38H7.5A.38.38,0,0,0,7.88,6Zm1.87,4.5a.37.37,0,0,1-.37-.37V1.88a.37.37,0,0,1,.37-.38.38.38,0,0,1,.38.38v8.25A.38.38,0,0,1,9.75,10.5Z"/></g></g></svg>