<svg xmlns="http://www.w3.org/2000/svg" viewBox="0 0 12 12"><defs><style>.cls-1{fill:none;}.cls-2{fill:#888;fill-rule:evenodd;}</style></defs><g id="Layer_2" data-name="Layer 2"><g id="Layer_1-2" data-name="Layer 1"><rect class="cls-1" width="12" height="12"/><path class="cls-2" d="M6.11,8.52a.37.37,0,0,1,0-.53h0l2-2-2-2a.38.38,0,0,1,0-.54.39.39,0,0,1,.53,0L8.89,5.73a.37.37,0,0,1,0,.53h0L6.64,8.52a.39.39,0,0,1-.53,0Z"/><path class="cls-2" d="M.75,6a.37.37,0,0,1,.38-.37H7.88A.37.37,0,0,1,8.25,6a.38.38,0,0,1-.37.38H1.13A.38.38,0,0,1,.75,6Z"/><path class="cls-2" d="M10.13,10.88a1.13,1.13,0,0,0,1.12-1.13V2.25a1.12,1.12,0,0,0-1.12-1.12h-6A1.12,1.12,0,0,0,3,2.25V3.38a.38.38,0,0,0,.75,0V2.25a.37.37,0,0,1,.38-.37h6a.37.37,0,0,1,.37.37v7.5a.38.38,0,0,1-.37.38h-6a.38.38,0,0,1-.38-.38V8.63a.38.38,0,1,0-.75,0V9.75a1.13,1.13,0,0,0,1.13,1.13Z"/></g></g></svg>