<svg xmlns="http://www.w3.org/2000/svg" viewBox="0 0 12 12"><defs><style>.cls-1{fill:none;}.cls-2{fill:#888;fill-rule:evenodd;}</style></defs><g id="Layer_2" data-name="Layer 2"><g id="Layer_1-2" data-name="Layer 1"><rect class="cls-1" width="12" height="12"/><path class="cls-2" d="M3.27,8.52a.39.39,0,0,0,0-.53h0l-2-2,2-2a.38.38,0,0,0-.54-.54L.48,5.73a.39.39,0,0,0,0,.53h0L2.73,8.52a.4.4,0,0,0,.54,0Z"/><path class="cls-2" d="M8.63,6a.37.37,0,0,0-.38-.37H1.5A.36.36,0,0,0,1.13,6a.37.37,0,0,0,.37.38H8.25A.38.38,0,0,0,8.63,6Z"/><path class="cls-2" d="M10.5,10.13A1.14,1.14,0,0,0,11.63,9V3A1.13,1.13,0,0,0,10.5,1.88H5.25A1.12,1.12,0,0,0,4.13,3V4.13a.37.37,0,0,0,.37.37.38.38,0,0,0,.38-.37V3a.36.36,0,0,1,.37-.37H10.5a.37.37,0,0,1,.38.37V9a.38.38,0,0,1-.38.38H5.25A.37.37,0,0,1,4.88,9V7.88A.38.38,0,0,0,4.5,7.5a.37.37,0,0,0-.37.38V9a1.13,1.13,0,0,0,1.12,1.13Z"/></g></g></svg>