<svg xmlns="http://www.w3.org/2000/svg" width="43.598" height="43.598" viewBox="0 0 43.598 43.598"><g transform="translate(-610.929 -393.929)"><g transform="translate(618 415.728) rotate(-45)" fill="#ff4a4a"><path d="M 10.41428852081299 23.32857894897461 C 6.964758396148682 23.32857894897461 3.721698522567749 21.98525810241699 1.282508492469788 19.54606819152832 C -1.156681537628174 17.10687828063965 -2.500001430511475 13.86381816864014 -2.500001430511475 10.41428852081299 C -2.500001430511475 6.964758396148682 -1.156681537628174 3.721698522567749 1.282508492469788 1.282508492469788 C 3.721698522567749 -1.156681537628174 6.964758396148682 -2.500001430511475 10.41428852081299 -2.500001430511475 C 13.86381816864014 -2.500001430511475 17.10687828063965 -1.156681537628174 19.54606819152832 1.282508492469788 C 21.98525810241699 3.721698522567749 23.32857894897461 6.964758396148682 23.32857894897461 10.41428852081299 C 23.32857894897461 13.86381816864014 21.98525810241699 17.10687828063965 19.54606819152832 19.54606819152832 C 17.10687828063965 21.98525810241699 13.86381816864014 23.32857894897461 10.41428852081299 23.32857894897461 Z" stroke="none"/><path d="M 10.41428852081299 -1.9073486328125e-06 C 4.662637710571289 -1.9073486328125e-06 -1.9073486328125e-06 4.662637710571289 -1.9073486328125e-06 10.41428852081299 C -1.9073486328125e-06 16.16593933105469 4.662637710571289 20.82857894897461 10.41428852081299 20.82857894897461 C 16.16593933105469 20.82857894897461 20.82857894897461 16.16593933105469 20.82857894897461 10.41428852081299 C 20.82857894897461 4.662637710571289 16.16593933105469 -1.9073486328125e-06 10.41428852081299 -1.9073486328125e-06 M 10.41428852081299 -5.000001907348633 C 12.49299812316895 -5.000001907348633 14.51218795776367 -4.591760635375977 16.41575813293457 -3.786611557006836 C 18.25187873840332 -3.010002136230469 19.89982795715332 -1.899261474609375 21.31383895874023 -0.4852619171142578 C 22.72783851623535 0.9287490844726563 23.83857917785645 2.576698303222656 24.61518859863281 4.412818908691406 C 25.42033767700195 6.316388130187988 25.82857894897461 8.335578918457031 25.82857894897461 10.41428852081299 C 25.82857894897461 12.49299812316895 25.42033767700195 14.51218795776367 24.61518859863281 16.41575813293457 C 23.83857917785645 18.25187873840332 22.72783851623535 19.89982795715332 21.31383895874023 21.31383895874023 C 19.89982795715332 22.72783851623535 18.25187873840332 23.83857917785645 16.41575813293457 24.61518859863281 C 14.51218795776367 25.42033767700195 12.49299812316895 25.82857894897461 10.41428852081299 25.82857894897461 C 8.335578918457031 25.82857894897461 6.316388130187988 25.42033767700195 4.412818908691406 24.61518859863281 C 2.576698303222656 23.83857917785645 0.9287490844726563 22.72783851623535 -0.4852619171142578 21.31383895874023 C -1.899261474609375 19.89982795715332 -3.010002136230469 18.25187873840332 -3.786611557006836 16.41575813293457 C -4.591760635375977 14.51218795776367 -5.000001907348633 12.49299812316895 -5.000001907348633 10.41428852081299 C -5.000001907348633 8.335578918457031 -4.591760635375977 6.316388130187988 -3.786611557006836 4.412818908691406 C -3.010002136230469 2.576698303222656 -1.899261474609375 0.9287490844726563 -0.4852619171142578 -0.4852619171142578 C 0.9287490844726563 -1.899261474609375 2.576698303222656 -3.010002136230469 4.412818908691406 -3.786611557006836 C 6.316388130187988 -4.591760635375977 8.335578918457031 -5.000001907348633 10.41428852081299 -5.000001907348633 Z" stroke="none" fill="#fff"/></g><path d="M75.594,52.184l-1.407-1.407-2.89,2.89-2.89-2.889L67,52.185l2.89,2.889L67,57.963l1.407,1.407,2.89-2.89,2.89,2.89,1.407-1.407-2.89-2.89Z" transform="translate(561.413 360.854)" fill="#fff"/></g></svg>