<?xml version="1.0" encoding="utf-8"?>
<!-- Generator: Adobe Illustrator 24.1.2, SVG Export Plug-In . SVG Version: 6.00 Build 0)  -->
<svg version="1.1" id="Layer_1" xmlns="http://www.w3.org/2000/svg" xmlns:xlink="http://www.w3.org/1999/xlink" x="0px" y="0px"
	 viewBox="0 0 61.9 55" style="enable-background:new 0 0 61.9 55;" xml:space="preserve">
<style type="text/css">
	.st0{fill:#656C70;}
</style>
<path class="st0" d="M56.7,32.4L61.8,10c0.3-1.4-0.6-2.8-1.9-3.1c-0.2,0-0.4-0.1-0.6-0.1H17.1l-1-4.8C15.9,0.9,14.8,0,13.6,0h-11
	C1.2,0,0,1.2,0,2.6v1.7c0,1.4,1.2,2.6,2.6,2.6h7.5l7.5,36.9c-2.9,1.7-3.9,5.3-2.2,8.2s5.3,3.9,8.2,2.2s3.9-5.3,2.2-8.2
	c-0.3-0.5-0.6-0.9-1-1.3h22.5c-2.4,2.3-2.4,6.1-0.1,8.5c2.3,2.4,6.1,2.4,8.5,0.1c2.4-2.3,2.4-6.1,0.1-8.5c-0.5-0.5-1.1-0.9-1.7-1.2
	l0.6-2.6c0.3-1.4-0.6-2.8-1.9-3.1c-0.2,0-0.4-0.1-0.6-0.1H23.4l-0.7-3.4h31.5C55.4,34.4,56.5,33.5,56.7,32.4z"/>
</svg>
