<svg xmlns="http://www.w3.org/2000/svg" width="280" height="148.46" viewBox="0 0 280 148.46"><path d="M476.623,209.132h6.087V79H223V209.132H476.623Zm0-5.5H354.884V84.5H476.623ZM229.087,84.5H348.8V203.633H229.087Z" transform="translate(-212.855 -69.836)" fill="#52585c"/><path d="M491.913,74H224.087C220.725,74,218,76.461,218,79.5V216.962c0,3.037,2.725,5.5,6.087,5.5H491.913c3.362,0,6.087-2.462,6.087-5.5V79.5C498,76.461,495.275,74,491.913,74Zm0,142.962H224.087V79.5H491.913Z" transform="translate(-218 -74)" fill="#52585c"/><path d="M232.507,122.535a1.08,1.08,0,0,0,.507.123,1.038,1.038,0,0,0,.879-.458l22.319-34.824a.871.871,0,0,0-.371-1.252,1.071,1.071,0,0,0-1.386.335l-22.319,34.824A.871.871,0,0,0,232.507,122.535Z" transform="translate(-203.594 -64.007)" fill="#52585c"/><path d="M255.841,93.124a1.071,1.071,0,0,0-1.386.335l-22.319,34.824a.871.871,0,0,0,.371,1.252,1.08,1.08,0,0,0,.507.123,1.038,1.038,0,0,0,.879-.458l22.319-34.824A.871.871,0,0,0,255.841,93.124Z" transform="translate(-203.594 -58.177)" fill="#52585c"/><path d="M264.841,86.124a1.071,1.071,0,0,0-1.386.335l-22.319,34.824a.871.871,0,0,0,.371,1.252,1.08,1.08,0,0,0,.507.123,1.038,1.038,0,0,0,.879-.458l22.319-34.824A.871.871,0,0,0,264.841,86.124Z" transform="translate(-194.333 -64.007)" fill="#52585c"/><path d="M337.452,146.174a1.082,1.082,0,0,0,.562.154,1.046,1.046,0,0,0,.844-.409l12.174-16.5a.863.863,0,0,0-.282-1.27,1.083,1.083,0,0,0-1.406.255L337.17,144.9A.863.863,0,0,0,337.452,146.174Z" transform="translate(-95.551 -29.026)" fill="#52585c"/><path d="M330.014,150.824a1.046,1.046,0,0,0,.844-.409l24.348-32.991a.863.863,0,0,0-.282-1.27,1.083,1.083,0,0,0-1.406.255L329.17,149.4a.863.863,0,0,0,.282,1.27A1.081,1.081,0,0,0,330.014,150.824Z" transform="translate(-103.783 -39.021)" fill="#52585c"/><path d="M350.866,127.154a1.085,1.085,0,0,0-1.406.255L329.17,154.9a.863.863,0,0,0,.282,1.27,1.081,1.081,0,0,0,.562.154,1.046,1.046,0,0,0,.844-.409l20.29-27.493A.863.863,0,0,0,350.866,127.154Z" transform="translate(-103.783 -29.859)" fill="#52585c"/></svg>