<svg xmlns="http://www.w3.org/2000/svg" xmlns:xlink="http://www.w3.org/1999/xlink" width="103" height="182" viewBox="0 0 103 182">
  <defs>
    <clipPath id="clip-path">
      <rect id="Rectangle_125" data-name="Rectangle 125" width="98" height="179" transform="translate(934 401)" fill="#fff"/>
    </clipPath>
    <linearGradient id="linear-gradient" y1="0.5" x2="1" y2="0.5" gradientUnits="objectBoundingBox">
      <stop offset="0" stop-color="#fff" stop-opacity="0"/>
      <stop offset="0.535" stop-color="#fff" stop-opacity="0.851"/>
      <stop offset="1" stop-color="#fff"/>
    </linearGradient>
  </defs>
  <g id="Group_98" data-name="Group 98" transform="translate(-929 -401)">
    <g id="Mask_Group_5" data-name="Mask Group 5" clip-path="url(#clip-path)">
      <g id="Component_4_7" data-name="Component 4 – 7" transform="translate(939 372.373)" opacity="0.2">
        <g id="Group_34" data-name="Group 34" transform="translate(0 37.883)">
          <path id="Path_62" data-name="Path 62" d="M477.139,222.637h6.1V79H223V222.637H477.139Zm0-6.069H355.152V85.069H477.139ZM229.1,85.069H349.053v131.5H229.1Z" transform="translate(-212.834 -68.885)" fill="#52585c"/>
          <path id="Path_63" data-name="Path 63" d="M492.47,74H224.1a6.084,6.084,0,0,0-6.1,6.069V231.8a6.084,6.084,0,0,0,6.1,6.069H492.47a6.084,6.084,0,0,0,6.1-6.069V80.069A6.084,6.084,0,0,0,492.47,74Zm0,157.8H224.1V80.069H492.47Z" transform="translate(-218 -74)" fill="#52585c"/>
          <path id="Path_64" data-name="Path 64" d="M232.508,126.327a1,1,0,0,0,.508.136,1.016,1.016,0,0,0,.88-.506l22.364-38.438a1.015,1.015,0,0,0-1.761-1.012l-22.364,38.438A1.01,1.01,0,0,0,232.508,126.327Z" transform="translate(-203.537 -61.724)" fill="#52585c"/>
          <path id="Path_65" data-name="Path 65" d="M255.889,93.137a1.015,1.015,0,0,0-1.389.37l-22.364,38.438a1.015,1.015,0,0,0,1.761,1.012l22.364-38.438A1.01,1.01,0,0,0,255.889,93.137Z" transform="translate(-203.537 -54.563)" fill="#52585c"/>
          <path id="Path_66" data-name="Path 66" d="M264.889,86.137a1.015,1.015,0,0,0-1.389.37l-22.364,38.438a1.015,1.015,0,0,0,1.761,1.012l22.364-38.438A1.01,1.01,0,0,0,264.889,86.137Z" transform="translate(-194.239 -61.724)" fill="#52585c"/>
          <path id="Path_67" data-name="Path 67" d="M337.453,148.06a1.018,1.018,0,0,0,1.409-.281l12.2-18.208a1.007,1.007,0,0,0-.283-1.4,1.02,1.02,0,0,0-1.409.281l-12.2,18.208A1.007,1.007,0,0,0,337.453,148.06Z" transform="translate(-95.06 -18.755)" fill="#52585c"/>
          <path id="Path_68" data-name="Path 68" d="M330.016,154.438a1.017,1.017,0,0,0,.846-.451l24.4-36.415a1.008,1.008,0,0,0-.283-1.4,1.019,1.019,0,0,0-1.409.281l-24.4,36.415a1.012,1.012,0,0,0,.846,1.572Z" transform="translate(-103.325 -31.031)" fill="#52585c"/>
          <path id="Path_69" data-name="Path 69" d="M350.911,127.169a1.021,1.021,0,0,0-1.409.281L329.171,157.8a1.015,1.015,0,0,0,1.691,1.121l20.331-30.346A1.007,1.007,0,0,0,350.911,127.169Z" transform="translate(-103.325 -19.777)" fill="#52585c"/>
        </g>
        <g id="Group_35" data-name="Group 35" transform="translate(55 35.452)" opacity="0">
          <path id="Path_92" data-name="Path 92" d="M539.51,61.062H545.8V-87H397V61.062H539.51ZM403.287-80.744H539.51V54.806H403.287Z" transform="translate(-386.521 97.427)" fill="#52585c"/>
          <path id="Path_93" data-name="Path 93" d="M555.468-92H398.287A6.271,6.271,0,0,0,392-85.744V70.66a6.271,6.271,0,0,0,6.287,6.256h157.18a6.271,6.271,0,0,0,6.287-6.256v-156.4A6.271,6.271,0,0,0,555.468-92Zm0,162.66H398.287v-156.4h157.18Z" transform="translate(-392 92)" fill="#52585c"/>
          <path id="Path_94" data-name="Path 94" d="M406.522-38.432a1.041,1.041,0,0,0,.526.14,1.047,1.047,0,0,0,.907-.521l23.053-39.622a1.042,1.042,0,0,0-.382-1.424,1.051,1.051,0,0,0-1.434.382L406.14-39.856A1.042,1.042,0,0,0,406.522-38.432Z" transform="translate(-376.66 105.024)" fill="#52585c"/>
          <path id="Path_95" data-name="Path 95" d="M430.627-72.86a1.053,1.053,0,0,0-1.434.382L406.14-32.856a1.042,1.042,0,0,0,.382,1.424,1.041,1.041,0,0,0,.526.14,1.047,1.047,0,0,0,.907-.521l23.053-39.622A1.042,1.042,0,0,0,430.627-72.86Z" transform="translate(-376.66 112.622)" fill="#52585c"/>
          <path id="Path_96" data-name="Path 96" d="M439.627-79.86a1.051,1.051,0,0,0-1.434.382L415.14-39.856a1.043,1.043,0,0,0,.381,1.424,1.042,1.042,0,0,0,.526.14,1.047,1.047,0,0,0,.908-.521l23.053-39.622A1.042,1.042,0,0,0,439.627-79.86Z" transform="translate(-366.798 105.024)" fill="#52585c"/>
          <path id="Path_97" data-name="Path 97" d="M445.45-4H429.162a1.046,1.046,0,0,0-1.048,1.043,1.046,1.046,0,0,0,1.048,1.043H445.45A1.046,1.046,0,0,0,446.5-2.957,1.046,1.046,0,0,0,445.45-4Z" transform="translate(-352.428 187.513)" fill="#52585c"/>
          <path id="Path_98" data-name="Path 98" d="M432.822-4H416.534a1.046,1.046,0,0,0-1.048,1.043,1.046,1.046,0,0,0,1.048,1.043h16.288a1.046,1.046,0,0,0,1.048-1.043A1.046,1.046,0,0,0,432.822-4Z" transform="translate(-366.265 187.513)" fill="#52585c"/>
          <path id="Path_99" data-name="Path 99" d="M458.079-4H441.791a1.046,1.046,0,0,0-1.048,1.043,1.046,1.046,0,0,0,1.048,1.043h16.288a1.046,1.046,0,0,0,1.048-1.043A1.046,1.046,0,0,0,458.079-4Z" transform="translate(-338.59 187.513)" fill="#52585c"/>
          <path id="Path_100" data-name="Path 100" d="M420.193-4H403.9a1.046,1.046,0,0,0-1.048,1.043A1.046,1.046,0,0,0,403.9-1.915h16.288a1.046,1.046,0,0,0,1.048-1.043A1.046,1.046,0,0,0,420.193-4Z" transform="translate(-380.104 187.513)" fill="#52585c"/>
          <path id="Path_101" data-name="Path 101" d="M470.708-4H454.42a1.046,1.046,0,0,0-1.048,1.043,1.046,1.046,0,0,0,1.048,1.043h16.288a1.046,1.046,0,0,0,1.048-1.043A1.046,1.046,0,0,0,470.708-4Z" transform="translate(-324.752 187.513)" fill="#52585c"/>
          <path id="Path_102" data-name="Path 102" d="M477.954,1.386,465.715-8.664a1.055,1.055,0,0,0-1.475.142,1.039,1.039,0,0,0,.142,1.468l10.2,8.373h-5.34a1.043,1.043,0,1,0,0,2.085h5.591l-10.449,8.579a1.042,1.042,0,0,0,.666,1.848,1.056,1.056,0,0,0,.666-.238L478.289,3.271a1.041,1.041,0,0,0,.381-.8c0-.017-.01-.033-.01-.05s.01-.035.01-.054A1.032,1.032,0,0,0,477.954,1.386Z" transform="translate(-313.107 182.195)" fill="#52585c"/>
          <path id="Path_103" data-name="Path 103" d="M408.431-8.62a1.051,1.051,0,0,0-1.475-.142L394.381,1.561a1.041,1.041,0,0,0-.381.8c0,.017.01.033.01.05s-.01.035-.01.054a1.032,1.032,0,0,0,.717.976L406.956,13.5a1.052,1.052,0,0,0,1.475-.142,1.039,1.039,0,0,0-.142-1.468l-10.2-8.373h5.34a1.043,1.043,0,1,0,0-2.085h-5.591l10.449-8.579A1.039,1.039,0,0,0,408.431-8.62Z" transform="translate(-389.809 182.086)" fill="#52585c"/>
          <path id="Path_104" data-name="Path 104" d="M393.048-9A1.046,1.046,0,0,0,392-7.957V12.9a1.048,1.048,0,0,0,2.1,0V-7.957A1.046,1.046,0,0,0,393.048-9Z" transform="translate(-392 182.087)" fill="#52585c"/>
          <path id="Path_105" data-name="Path 105" d="M473.048-9A1.046,1.046,0,0,0,472-7.957V12.9a1.048,1.048,0,0,0,2.1,0V-7.957A1.046,1.046,0,0,0,473.048-9Z" transform="translate(-304.341 182.087)" fill="#52585c"/>
          <path id="Path_106" data-name="Path 106" d="M485.479-9.221l-8.622-10.4a1.051,1.051,0,0,0-1.475-.142,1.039,1.039,0,0,0-.143,1.468L485.613-5.782a1.053,1.053,0,0,0,.809.38c.017,0,.034-.01.05-.01s.036.01.054.01a1.036,1.036,0,0,0,.981-.713l10.1-12.179a1.039,1.039,0,0,0-.141-1.468,1.055,1.055,0,0,0-1.475.142L487.575-9.473v-5.314a1.046,1.046,0,0,0-1.048-1.043,1.046,1.046,0,0,0-1.048,1.043Z" transform="translate(-301.054 170.147)" fill="#52585c"/>
          <path id="Path_107" data-name="Path 107" d="M480-26.007a1.046,1.046,0,0,0,1.048,1.043,1.046,1.046,0,0,0,1.048-1.043V-42.214a1.046,1.046,0,0,0-1.048-1.043A1.046,1.046,0,0,0,480-42.214Z" transform="translate(-295.575 144.905)" fill="#52585c"/>
          <path id="Path_108" data-name="Path 108" d="M481.048-62.85a1.046,1.046,0,0,0,1.048-1.043V-80.1a1.046,1.046,0,0,0-1.048-1.043A1.046,1.046,0,0,0,480-80.1v16.208A1.046,1.046,0,0,0,481.048-62.85Z" transform="translate(-295.575 103.784)" fill="#52585c"/>
          <path id="Path_109" data-name="Path 109" d="M480-51.266a1.044,1.044,0,0,0,1.048,1.043,1.044,1.044,0,0,0,1.048-1.043V-67.471a1.044,1.044,0,0,0-1.048-1.043A1.044,1.044,0,0,0,480-67.471Z" transform="translate(-295.575 117.491)" fill="#52585c"/>
          <path id="Path_110" data-name="Path 110" d="M480-38.636a1.046,1.046,0,0,0,1.048,1.043,1.046,1.046,0,0,0,1.048-1.043V-54.843a1.046,1.046,0,0,0-1.048-1.043A1.046,1.046,0,0,0,480-54.843Z" transform="translate(-295.575 131.197)" fill="#52585c"/>
          <path id="Path_111" data-name="Path 111" d="M480-13.38a1.046,1.046,0,0,0,1.048,1.043A1.046,1.046,0,0,0,482.1-13.38V-29.585a1.044,1.044,0,0,0-1.048-1.043A1.044,1.044,0,0,0,480-29.585Z" transform="translate(-295.575 158.612)" fill="#52585c"/>
          <path id="Path_112" data-name="Path 112" d="M497.005-12H476.048A1.046,1.046,0,0,0,475-10.957a1.046,1.046,0,0,0,1.048,1.043h20.957a1.046,1.046,0,0,0,1.048-1.043A1.046,1.046,0,0,0,497.005-12Z" transform="translate(-301.053 178.83)" fill="#52585c"/>
          <path id="Path_113" data-name="Path 113" d="M497.705-77.108,487.331-89.62a1.044,1.044,0,0,0-.811-.359.9.9,0,0,0-.1-.021,1.036,1.036,0,0,0-.981.713l-10.1,12.179a1.039,1.039,0,0,0,.14,1.468,1.051,1.051,0,0,0,1.475-.142l8.414-10.147v5.314a1.046,1.046,0,0,0,1.048,1.043,1.046,1.046,0,0,0,1.048-1.043v-5.566l8.622,10.4a1.048,1.048,0,0,0,.809.38,1.056,1.056,0,0,0,.667-.238A1.039,1.039,0,0,0,497.705-77.108Z" transform="translate(-300.945 94.171)" fill="#52585c"/>
          <path id="Path_114" data-name="Path 114" d="M476.048-89.915h20.957a1.046,1.046,0,0,0,1.048-1.043A1.046,1.046,0,0,0,497.005-92H476.048A1.046,1.046,0,0,0,475-90.957,1.046,1.046,0,0,0,476.048-89.915Z" transform="translate(-301.053 92)" fill="#52585c"/>
        </g>
        <g id="Group_36" data-name="Group 36" transform="translate(55)" opacity="0">
          <path id="Path_115" data-name="Path 115" d="M657.51,95.514H663.8V-88H515V95.514H657.51ZM521.287-81.744H657.51v171H521.287Z" transform="translate(-504.521 98.427)" fill="#52585c"/>
          <path id="Path_116" data-name="Path 116" d="M673.468-93H516.287A6.271,6.271,0,0,0,510-86.744V105.111a6.271,6.271,0,0,0,6.287,6.256H673.468a6.272,6.272,0,0,0,6.287-6.256V-86.744A6.272,6.272,0,0,0,673.468-93Zm0,198.111H516.287V-86.744H673.468Z" transform="translate(-510 93)" fill="#52585c"/>
          <path id="Path_117" data-name="Path 117" d="M523.522-36.432a1.041,1.041,0,0,0,.526.14,1.047,1.047,0,0,0,.908-.521l23.053-39.622a1.042,1.042,0,0,0-.382-1.424,1.053,1.053,0,0,0-1.433.382L523.141-37.856A1.042,1.042,0,0,0,523.522-36.432Z" transform="translate(-495.756 109.281)" fill="#52585c"/>
          <path id="Path_118" data-name="Path 118" d="M547.627-70.86a1.051,1.051,0,0,0-1.433.382L523.141-30.856a1.042,1.042,0,0,0,.381,1.424,1.041,1.041,0,0,0,.526.14,1.047,1.047,0,0,0,.908-.521l23.053-39.622A1.042,1.042,0,0,0,547.627-70.86Z" transform="translate(-495.756 116.878)" fill="#52585c"/>
          <path id="Path_119" data-name="Path 119" d="M556.627-77.86a1.053,1.053,0,0,0-1.433.382L532.141-37.856a1.042,1.042,0,0,0,.381,1.424,1.042,1.042,0,0,0,.526.14,1.047,1.047,0,0,0,.908-.521l23.053-39.622A1.042,1.042,0,0,0,556.627-77.86Z" transform="translate(-485.894 109.281)" fill="#52585c"/>
          <path id="Path_120" data-name="Path 120" d="M550.822,12H534.534a1.043,1.043,0,1,0,0,2.085h16.288a1.043,1.043,0,1,0,0-2.085Z" transform="translate(-484.265 206.965)" fill="#52585c"/>
          <path id="Path_121" data-name="Path 121" d="M576.079,12H559.791a1.043,1.043,0,1,0,0,2.085h16.288a1.043,1.043,0,1,0,0-2.085Z" transform="translate(-456.59 206.965)" fill="#52585c"/>
          <path id="Path_122" data-name="Path 122" d="M538.193,12H521.9a1.043,1.043,0,1,0,0,2.085h16.288a1.043,1.043,0,1,0,0-2.085Z" transform="translate(-498.104 206.965)" fill="#52585c"/>
          <path id="Path_123" data-name="Path 123" d="M563.45,12H547.162a1.043,1.043,0,1,0,0,2.085H563.45a1.043,1.043,0,1,0,0-2.085Z" transform="translate(-470.429 206.965)" fill="#52585c"/>
          <path id="Path_124" data-name="Path 124" d="M588.708,12H572.42a1.043,1.043,0,1,0,0,2.085h16.288a1.043,1.043,0,1,0,0-2.085Z" transform="translate(-442.752 206.965)" fill="#52585c"/>
          <path id="Path_125" data-name="Path 125" d="M595.954,17.386,583.715,7.336a1.055,1.055,0,0,0-1.475.142,1.039,1.039,0,0,0,.143,1.468l10.2,8.373h-5.34a1.043,1.043,0,1,0,0,2.085h5.591l-10.449,8.579a1.042,1.042,0,0,0,.666,1.848,1.056,1.056,0,0,0,.666-.238l12.574-10.323a1.04,1.04,0,0,0,.382-.8c0-.017-.01-.033-.01-.05s.01-.035.01-.054A1.032,1.032,0,0,0,595.954,17.386Z" transform="translate(-431.107 201.646)" fill="#52585c"/>
          <path id="Path_126" data-name="Path 126" d="M526.431,7.38a1.051,1.051,0,0,0-1.475-.142L512.382,17.561a1.04,1.04,0,0,0-.381.8c0,.017.01.033.01.05s-.01.035-.01.054a1.032,1.032,0,0,0,.717.976L524.956,29.5a1.052,1.052,0,0,0,1.475-.142,1.039,1.039,0,0,0-.142-1.468l-10.2-8.373h5.34a1.043,1.043,0,1,0,0-2.085h-5.591l10.449-8.579A1.039,1.039,0,0,0,526.431,7.38Z" transform="translate(-507.809 201.538)" fill="#52585c"/>
          <path id="Path_127" data-name="Path 127" d="M511.048,7A1.046,1.046,0,0,0,510,8.043V28.9a1.048,1.048,0,0,0,2.1,0V8.043A1.046,1.046,0,0,0,511.048,7Z" transform="translate(-510 201.538)" fill="#52585c"/>
          <path id="Path_128" data-name="Path 128" d="M591.048,7A1.046,1.046,0,0,0,590,8.043V28.9a1.048,1.048,0,0,0,2.1,0V8.043A1.046,1.046,0,0,0,591.048,7Z" transform="translate(-422.341 201.538)" fill="#52585c"/>
          <path id="Path_129" data-name="Path 129" d="M600.1-67.523a1.044,1.044,0,0,0-1.048-1.043A1.044,1.044,0,0,0,598-67.523V-50.44a1.044,1.044,0,0,0,1.048,1.043A1.044,1.044,0,0,0,600.1-50.44Z" transform="translate(-413.575 119.52)" fill="#52585c"/>
          <path id="Path_130" data-name="Path 130" d="M600.1-54.21a1.046,1.046,0,0,0-1.048-1.043A1.046,1.046,0,0,0,598-54.21v17.083a1.044,1.044,0,0,0,1.048,1.043,1.044,1.044,0,0,0,1.048-1.043Z" transform="translate(-413.575 133.97)" fill="#52585c"/>
          <path id="Path_131" data-name="Path 131" d="M600.1-40.9a1.046,1.046,0,0,0-1.048-1.043A1.046,1.046,0,0,0,598-40.9v17.086a1.046,1.046,0,0,0,1.048,1.043,1.046,1.046,0,0,0,1.048-1.043Z" transform="translate(-413.575 148.42)" fill="#52585c"/>
          <path id="Path_132" data-name="Path 132" d="M599.048-15.313A1.044,1.044,0,0,0,598-14.27V2.813a1.048,1.048,0,0,0,2.1,0V-14.27A1.044,1.044,0,0,0,599.048-15.313Z" transform="translate(-413.575 177.32)" fill="#52585c"/>
          <path id="Path_133" data-name="Path 133" d="M600.1-80.837a1.046,1.046,0,0,0-1.048-1.043A1.046,1.046,0,0,0,598-80.837v17.086a1.046,1.046,0,0,0,1.048,1.043,1.046,1.046,0,0,0,1.048-1.043Z" transform="translate(-413.575 105.069)" fill="#52585c"/>
          <path id="Path_134" data-name="Path 134" d="M600.1-27.583a1.044,1.044,0,0,0-1.048-1.043A1.044,1.044,0,0,0,598-27.583V-10.5a1.046,1.046,0,0,0,1.048,1.043A1.046,1.046,0,0,0,600.1-10.5Z" transform="translate(-413.575 162.87)" fill="#52585c"/>
          <path id="Path_135" data-name="Path 135" d="M603.613,10.218a1.052,1.052,0,0,0,.809.38c.017,0,.034-.01.05-.01s.036.01.054.01a1.036,1.036,0,0,0,.981-.713l10.1-12.179a1.039,1.039,0,0,0-.14-1.468,1.055,1.055,0,0,0-1.475.142L605.575,6.527V1.213a1.048,1.048,0,0,0-2.1,0V6.779l-8.622-10.4a1.053,1.053,0,0,0-1.475-.142,1.039,1.039,0,0,0-.142,1.468Z" transform="translate(-419.054 189.599)" fill="#52585c"/>
          <path id="Path_136" data-name="Path 136" d="M615.005,4H594.048a1.043,1.043,0,1,0,0,2.085h20.957a1.043,1.043,0,1,0,0-2.085Z" transform="translate(-419.054 198.282)" fill="#52585c"/>
          <path id="Path_137" data-name="Path 137" d="M594.955-76.782l8.415-10.147v5.314a1.046,1.046,0,0,0,1.048,1.043,1.046,1.046,0,0,0,1.048-1.043v-5.566l8.622,10.4a1.048,1.048,0,0,0,.809.38,1.056,1.056,0,0,0,.666-.238,1.039,1.039,0,0,0,.142-1.468L605.332-90.62a1.044,1.044,0,0,0-.811-.359.9.9,0,0,0-.1-.021,1.037,1.037,0,0,0-.981.713l-10.1,12.179a1.039,1.039,0,0,0,.14,1.468A1.051,1.051,0,0,0,594.955-76.782Z" transform="translate(-418.945 95.171)" fill="#52585c"/>
        </g>
      </g>
    </g>
    <rect id="Rectangle_124" data-name="Rectangle 124" width="103" height="182" transform="translate(929 401)" fill="url(#linear-gradient)"/>
  </g>
</svg>
