<svg xmlns="http://www.w3.org/2000/svg" viewBox="0 0 22 19.56"><defs><style>.cls-1{fill:#707070;}</style></defs><g id="Layer_2" data-name="Layer 2"><g id="Layer_1-2" data-name="Layer 1"><path class="cls-1" d="M19.28,12.22H8.08l.25,1.22H18.58a.92.92,0,0,1,.9,1.12l-.21.93a2.15,2.15,0,1,1-2.43.4h-8a2.12,2.12,0,0,1,.64,1.53,2.14,2.14,0,1,1-3.2-1.86L3.59,2.44H.92A.92.92,0,0,1,0,1.53V.92A.92.92,0,0,1,.92,0H4.83a.92.92,0,0,1,.9.73l.35,1.71h15A.92.92,0,0,1,22,3.56l-1.81,8A.9.9,0,0,1,19.28,12.22Z"/></g></g></svg>