<svg id="Layer_1" data-name="Layer 1" xmlns="http://www.w3.org/2000/svg" viewBox="0 0 22 19.56"><defs><style>.cls-1{fill:#fac212;}</style></defs><g id="Layer_2" data-name="Layer 2"><g id="Layer_1-2" data-name="Layer 1-2"><path class="cls-1" d="M19.28,12.22H8.08l.25,1.22H18.58a.92.92,0,0,1,.92.92,1.36,1.36,0,0,1,0,.2l-.21.93a2.15,2.15,0,1,1-2.87,1,2.21,2.21,0,0,1,.44-.61h-8a2.14,2.14,0,1,1-2.56-.33L3.59,2.44H.92A.93.93,0,0,1,0,1.53V.92A.92.92,0,0,1,.92,0H4.83a.92.92,0,0,1,.9.73l.35,1.71h15a.92.92,0,0,1,.94.9.82.82,0,0,1,0,.22l-1.81,8A.89.89,0,0,1,19.28,12.22Z"/></g></g></svg>