<svg xmlns="http://www.w3.org/2000/svg" width="329.326" height="87.727" viewBox="0 0 329.326 87.727"><g transform="translate(1.105 4.615)"><path d="M155.653,513.712a45.97,45.97,0,0,1-.675,5.95,17.3,17.3,0,0,1-6.271,10.45q-6.465,5.111-17.752,5.111h-24.12V480.913h24.12q11.288,0,17.752,5.111a17.127,17.127,0,0,1,6.271,10.069,43.155,43.155,0,0,1,.675,5.721ZM145.137,502.5a35.15,35.15,0,0,0-.386-4.271,10.686,10.686,0,0,0-3.184-6.255q-4.247-3.661-11.674-3.661H117.254v39.512h12.639q7.428,0,11.674-3.661,2.41-2.134,3.184-6.636a38.956,38.956,0,0,0,.386-4.577q.095-1.754.1-5.263Q145.233,504.254,145.137,502.5Z" transform="translate(-106.834 -480.913)" fill="#595c5e"/><path d="M479.75,535.222V480.913h43.9v7.4H490.17v15.866h28.558V511.5H490.17v16.323h33.478v7.4Z" transform="translate(-407.778 -480.913)" fill="#595c5e"/><path d="M862.472,535.222l-19.3-26.773L831.6,519.433v15.789h-10.42V480.913H831.6V508.22l28.076-27.307H872.41l-22.287,21.281,24.6,33.028Z" transform="translate(-683.312 -480.913)" fill="#595c5e"/><path d="M1585.942,535.222l-14.472-22.883h-13.025v22.883h-10.42V480.913h26.629q9.646,0,15.533,4.5a13.565,13.565,0,0,1,5.789,11.365,12.77,12.77,0,0,1-3.956,9.458,19.027,19.027,0,0,1-9.745,4.958l15.823,24.027Zm-12.06-46.91h-15.437v17.01h15.437q11.673,0,11.674-8.467Q1585.556,488.313,1573.882,488.312Z" transform="translate(-1269.877 -480.913)" fill="#595c5e"/></g><g transform="translate(0 70.36)"><path d="M101.107,856.436v-1.7l7.624-9.563h-7.3v-1.777h10.242V845L104,854.659h7.67v1.777Z" transform="translate(-101.107 -839.179)" fill="#595c5e"/><path d="M228.415,856.436l-1.135-2.62h-6.511l-1.135,2.62h-2.665l6.048-13.044h2.016l6.048,13.044Zm-4.333-10.094-2.572,5.789h5.075Z" transform="translate(-194.607 -839.179)" fill="#595c5e"/><path d="M359.141,837.92a7.99,7.99,0,0,1-4.264,1.008,9.1,9.1,0,0,1-5.839-1.722l1.668-1.3a6.61,6.61,0,0,0,4.217,1.246q3.406,0,3.406-2a1.553,1.553,0,0,0-.649-1.356,3.952,3.952,0,0,0-1.807-.55l-1.946-.22a6.37,6.37,0,0,1-3.128-1.044,2.932,2.932,0,0,1-1.205-2.491,3.23,3.23,0,0,1,1.483-2.766,6.8,6.8,0,0,1,4.032-1.062,8.413,8.413,0,0,1,5.121,1.484l-1.6,1.246a5.849,5.849,0,0,0-3.592-1.007q-3.013,0-3.013,2.033a1.4,1.4,0,0,0,.626,1.209,4.064,4.064,0,0,0,1.854.6l1.877.22a6.941,6.941,0,0,1,3.082.971,3.062,3.062,0,0,1,1.344,2.675A3.192,3.192,0,0,1,359.141,837.92Zm-3.035-13.41h-1.993l-2.989-2.949h1.97l2.016,1.777,2.016-1.777h1.97Z" transform="translate(-301.188 -821.56)" fill="#595c5e"/><path d="M481.309,845.169v11.267h-2.5V845.169h-4.542v-1.777h11.586v1.777Z" transform="translate(-402.246 -839.179)" fill="#595c5e"/><path d="M603.453,856.436V843.392h2.5v13.044Z" transform="translate(-506.501 -839.179)" fill="#595c5e"/><path d="M692.621,845.169v11.267h-2.5V845.169h-4.542v-1.777h11.586v1.777Z" transform="translate(-572.774 -839.179)" fill="#595c5e"/><path d="M824.891,856.436l-7.624-9.179v9.179h-2.5V843.392h2.294l7.624,9.16v-9.16h2.5v13.044Z" transform="translate(-677.03 -839.179)" fill="#595c5e"/><path d="M955.838,856.436V843.392h10.543v1.777h-8.041v3.811H965.2v1.759h-6.859v3.92h8.041v1.777Z" transform="translate(-790.876 -839.179)" fill="#595c5e"/><path d="M1168.332,845.169v3.975h6.859v1.777h-6.859v5.514h-2.5V843.392h10.543v1.777Z" transform="translate(-960.339 -839.179)" fill="#595c5e"/><path d="M1296.8,850.352q0,.458-.023.806a6.466,6.466,0,0,1-.163,1.374,3.86,3.86,0,0,1-1.39,2.162,7.475,7.475,0,0,1-8.689,0,3.819,3.819,0,0,1-1.414-2.162,6.468,6.468,0,0,1-.162-1.374q-.023-.348-.023-.806v-1.8q0-.457.023-.806a6.463,6.463,0,0,1,.162-1.374,3.818,3.818,0,0,1,1.414-2.162,7.475,7.475,0,0,1,8.689,0,3.859,3.859,0,0,1,1.39,2.162,6.461,6.461,0,0,1,.163,1.374q.022.348.023.806Zm-2.688-3.646a2.383,2.383,0,0,0-.788-1.3,4.146,4.146,0,0,0-4.913,0,2.379,2.379,0,0,0-.787,1.3,20.442,20.442,0,0,0,0,5.5,2.378,2.378,0,0,0,.787,1.3,4.146,4.146,0,0,0,4.913,0,2.382,2.382,0,0,0,.788-1.3,20.522,20.522,0,0,0,0-5.5Z" transform="translate(-1056.456 -838.719)" fill="#595c5e"/><path d="M1420.005,856.436V843.392h2.5v11.267h7.948v1.777Z" transform="translate(-1165.46 -839.179)" fill="#595c5e"/><path d="M1543.31,856.436V843.392h2.5v13.044Z" transform="translate(-1264.967 -839.179)" fill="#595c5e"/><path d="M1632.892,852.314a3.693,3.693,0,0,1-1.6,3.133,6.507,6.507,0,0,1-3.893,1.1,6.262,6.262,0,0,1-4.009-1.264l1.668-1.3a3.81,3.81,0,0,0,.927.568,4,4,0,0,0,1.414.22q2.989,0,2.989-2.6v-8.775h2.5Z" transform="translate(-1329.592 -839.179)" fill="#595c5e"/><path d="M1748.137,856.436V843.392h10.543v1.777h-8.041v3.811h6.859v1.759h-6.859v3.92h8.041v1.777Z" transform="translate(-1430.263 -839.179)" fill="#595c5e"/></g><circle cx="27.116" cy="27.116" r="27.116" transform="translate(212.664)" fill="#ab4ba3"/><g transform="translate(194.908 11.02)"><path d="M1143.513,559.447A31.736,31.736,0,0,1,1128.5,514.1a27.119,27.119,0,1,0,24.912,47.751A31.472,31.472,0,0,1,1143.513,559.447Z" transform="translate(-1111 -514.099)" fill="#ab4ba3"/></g></svg>