<svg id="Layer_1" data-name="Layer 1" xmlns="http://www.w3.org/2000/svg" viewBox="0 0 1024 1024"><defs><style>.cls-1{fill:#fff;fill-rule:evenodd;isolation:isolate;}</style></defs><path class="cls-1" d="M1018.65,531.3a48,48,0,0,0-11.45-55.87L802.09,290.75a48,48,0,0,0-64.23,71.35L904.14,511.81,736.86,662.43a48,48,0,0,0,64.24,71.35L1006.2,549.1a47.69,47.69,0,0,0,12.44-17.8Z"/><path class="cls-1" d="M276,511.39,442.23,361.67A48,48,0,0,0,378,290.33L172.88,475a50.76,50.76,0,0,0,1,73.66L379,733.35A48,48,0,0,0,443.23,662Z"/></svg>