<svg xmlns="http://www.w3.org/2000/svg" width="51.224" height="37.78" viewBox="0 0 51.224 37.78"><g transform="translate(-105 -29.617)"><path d="M148,49.747l2.862-11.185h-9.6a2.589,2.589,0,0,0-2.254,2.822V63.213a2.589,2.589,0,0,0,2.254,2.822h31.763a2.589,2.589,0,0,0,2.253-2.822V61.581l-24.44-6.253A4.451,4.451,0,0,1,148,49.747Z" transform="translate(-34.013 1.362)" fill="#ffb400"/><g transform="translate(115.943 29.617)"><path d="M192.923,30.093a1.642,1.642,0,0,0-.469-.206L173.4,24.981a4.229,4.229,0,0,0-2.539.135l-11.609,4.352a1.82,1.82,0,0,0-1.12,1.237L154,46.265a2.9,2.9,0,0,0,.876,3.171,1.6,1.6,0,0,0,.47.207l29.692,7.766a1.928,1.928,0,0,0,1.649-.395,3.453,3.453,0,0,0,1.22-1.881L193.8,33.266A2.9,2.9,0,0,0,192.923,30.093Z" transform="translate(-153.648 -24.847)" fill="#52585c"/><path d="M178.638,41.33a2.776,2.776,0,0,0-1.7-2.748,1.809,1.809,0,0,0-.522-.078H156.908l-3.2,11.491a2.679,2.679,0,0,0,.879,3.018,1.662,1.662,0,0,0,.469.2l23.4,5.889Z" transform="translate(-153.574 -28.24)" fill="#363b3e"/><path d="M160.929,29.571l2.864,1.007,3.564,1.069S170,32.687,170.851,31c.5-.991,1.91-5.861,1.91-5.861Z" transform="translate(-155.402 -24.919)" fill="#363b3e"/></g></g></svg>