<svg xmlns="http://www.w3.org/2000/svg" viewBox="0 0 312.62 53.22"><defs><style>.cls-1{fill:#fac212;}.cls-2{fill:#656c70;}.cls-3{fill:#474b50;}.cls-4{fill:#b2b3b2;}</style></defs><title>logo-full</title><g id="Layer_2" data-name="Layer 2"><g id="Layer_1-2" data-name="Layer 1"><path class="cls-1" d="M12,28.6l3.81-14.88H3c-1.65,0-3,1.68-3,3.75V46.52c0,2.07,1.35,3.75,3,3.75H45.26c1.66,0,3-1.68,3-3.75V44.34L15.74,36C12.8,35.27,11.11,31.94,12,28.6Z"/><path class="cls-2" d="M66.82,7a2,2,0,0,0-.62-.27L40.84.18a5.58,5.58,0,0,0-3.38.18L22,6.15a2.4,2.4,0,0,0-1.49,1.64L15,28.5a3.86,3.86,0,0,0,1.17,4.22,2,2,0,0,0,.62.27L56.33,43.33a2.6,2.6,0,0,0,2.2-.53,4.61,4.61,0,0,0,1.62-2.5L68,11.2A3.86,3.86,0,0,0,66.82,7Z"/><path class="cls-3" d="M47.91,17.42a3.68,3.68,0,0,0-2.26-3.66,2.35,2.35,0,0,0-.69-.1H19L14.73,29a3.55,3.55,0,0,0,1.17,4,2.15,2.15,0,0,0,.63.26l31.13,7.84Z"/><path class="cls-3" d="M21.92,6.19l3.81,1.34L30.47,9s3.51,1.39,4.65-.86c.67-1.32,2.54-7.8,2.54-7.8Z"/><path class="cls-2" d="M93.29,32.65H79.49V29.53l9-13.3H79.87V12.77H93.29v3.07l-9,13.35h9Z"/><path class="cls-2" d="M113.12,32.65h-4.27l-1.24-3.51h-7.46l-1.26,3.51H94.61l7.64-19.88h3.21Zm-6.6-6.78L104,18.63l-2.66,7.24Z"/><path class="cls-2" d="M129.31,26.79a5.2,5.2,0,0,1-2.2,4.43,9.23,9.23,0,0,1-5.59,1.6q-4.92,0-7.66-2.62l2.65-2.52a7.08,7.08,0,0,0,5.07,1.68q3.72,0,3.72-2.46a2.11,2.11,0,0,0-.62-1.66,3.52,3.52,0,0,0-1.89-.71l-2.53-.34c-3.72-.48-5.57-2.33-5.57-5.56a5.43,5.43,0,0,1,2-4.37A8.08,8.08,0,0,1,122,12.6a9.68,9.68,0,0,1,6.78,2.32l-2.6,2.43a6.17,6.17,0,0,0-4.3-1.37,3.64,3.64,0,0,0-2.4.71,2.28,2.28,0,0,0-.84,1.81A1.87,1.87,0,0,0,119.3,20a3.52,3.52,0,0,0,1.9.75l2.48.34a7.54,7.54,0,0,1,4,1.53A5.38,5.38,0,0,1,129.31,26.79Zm-2-19.38-3.89,3.94H120.4l-3.89-3.94h3l2.45,2.1,2.44-2.1Z"/><path class="cls-2" d="M146.64,16.23h-5.48V32.65h-4.1V16.23h-5.48V12.77h15.06Z"/><path class="cls-2" d="M154.07,32.65H150V12.77h4.1Z"/><path class="cls-2" d="M172.46,16.23H167V32.65h-4.1V16.23H157.4V12.77h15.06Z"/><path class="cls-2" d="M191.86,32.65H188.2l-8.31-12.2v12.2h-4.1V12.77h3.66L187.76,25V12.77h4.1Z"/><path class="cls-2" d="M210.58,32.65H196.75V12.77h13.83v3.46h-9.73V20.9h8.28v3.46h-8.28v4.83h9.73Z"/><path class="cls-2" d="M235.25,16.23h-9.73v4.89h8.28v3.46h-8.28v8.07h-4.1V12.77h13.83Z"/><path class="cls-2" d="M253.61,22.71a26.29,26.29,0,0,1-.26,4.5,6.16,6.16,0,0,1-1.83,3.43,8.48,8.48,0,0,1-11.35,0,6.31,6.31,0,0,1-1.83-3.43,28.08,28.08,0,0,1-.23-4.5,27.93,27.93,0,0,1,.23-4.49,6.31,6.31,0,0,1,1.83-3.44,8.48,8.48,0,0,1,11.35,0,6.19,6.19,0,0,1,1.83,3.44A26.07,26.07,0,0,1,253.61,22.71Zm-4.1,0c0-1.52,0-2.49,0-2.9a4.46,4.46,0,0,0-1-2.68,3.81,3.81,0,0,0-5.27,0,4.52,4.52,0,0,0-1,2.68c0,.33-.06,1.3-.06,2.9s0,2.57.06,2.91a4.52,4.52,0,0,0,1,2.68,3.78,3.78,0,0,0,5.51-.28Q249.52,27,249.51,22.71Z"/><path class="cls-2" d="M271.42,32.65H257.8V12.77h4.09V29.19h9.53Z"/><path class="cls-2" d="M278.84,32.65h-4.09V12.77h4.09Z"/><path class="cls-2" d="M294.2,26.12a6.15,6.15,0,0,1-2.24,5,7.84,7.84,0,0,1-5.16,1.7,7.52,7.52,0,0,1-5.39-2l2.71-2.54a3.78,3.78,0,0,0,2.68,1.12q3.3,0,3.3-3.41V12.77h4.1Z"/><path class="cls-2" d="M312.62,32.65H298.8V12.77h13.82v3.46H302.9V20.9h8.28v3.46H302.9v4.83h9.72Z"/><path class="cls-4" d="M87.93,42.61a3.14,3.14,0,0,1-.45,1.67,3,3,0,0,1-1.3,1.17,4.29,4.29,0,0,1-1.94.42H81.62V50.1H79.85V39.35h4.38a4.66,4.66,0,0,1,1.52.24,3.55,3.55,0,0,1,1.19.69,3,3,0,0,1,.74,1A3.29,3.29,0,0,1,87.93,42.61Zm-1.75,0a1.65,1.65,0,0,0-.55-1.32,2.22,2.22,0,0,0-1.49-.48H81.62v3.58h2.52a2.25,2.25,0,0,0,1.49-.47A1.64,1.64,0,0,0,86.18,42.61Z"/><path class="cls-4" d="M95.63,43.08l-1.25,1.16a2,2,0,0,0-.55-.39,1.75,1.75,0,0,0-1.49.1,1.51,1.51,0,0,0-.6.6,1.77,1.77,0,0,0-.22.9V50.1H89.86V42.44h1.62v.83a2.31,2.31,0,0,1,.92-.67,3.16,3.16,0,0,1,1.27-.25,3.21,3.21,0,0,1,1.07.16A2.64,2.64,0,0,1,95.63,43.08Z"/><path class="cls-4" d="M103.44,46.26a6.74,6.74,0,0,1-.2,1.77,2.88,2.88,0,0,1-.77,1.25,3.77,3.77,0,0,1-4.91,0A2.86,2.86,0,0,1,96.8,48a7.48,7.48,0,0,1,0-3.52,2.93,2.93,0,0,1,.76-1.26,3,3,0,0,1,.63-.46,3.42,3.42,0,0,1,.82-.32,4.09,4.09,0,0,1,1-.12,3.73,3.73,0,0,1,1.43.25,3.24,3.24,0,0,1,1,.65,2.86,2.86,0,0,1,.76,1.25A6.38,6.38,0,0,1,103.44,46.26Zm-1.65,0a6.52,6.52,0,0,0-.11-1.27,1.58,1.58,0,0,0-.46-.83,1.68,1.68,0,0,0-1.21-.44,1.73,1.73,0,0,0-1.21.44,1.64,1.64,0,0,0-.45.83,6.52,6.52,0,0,0-.11,1.27,6.3,6.3,0,0,0,.11,1.25A1.59,1.59,0,0,0,100,48.81a1.69,1.69,0,0,0,1.21-.45,1.65,1.65,0,0,0,.46-.84A6.3,6.3,0,0,0,101.79,46.27Z"/><path class="cls-4" d="M112,50.1H110.4v-.82a2.89,2.89,0,0,1-.64.55,2.75,2.75,0,0,1-.69.27,3.63,3.63,0,0,1-.85.09,3.54,3.54,0,0,1-1.14-.19,2.6,2.6,0,0,1-.87-.49,2.44,2.44,0,0,1-.59-.88,4.48,4.48,0,0,1-.26-1.08,10,10,0,0,1-.07-1.29,9.77,9.77,0,0,1,.07-1.28,4.29,4.29,0,0,1,.26-1.07,2.27,2.27,0,0,1,1.46-1.38,3.76,3.76,0,0,1,2.33,0,2.4,2.4,0,0,1,1,.67V39.35H112Zm-1.66-3.83a6.29,6.29,0,0,0-.12-1.33,1.64,1.64,0,0,0-.5-.88,1.6,1.6,0,0,0-1.08-.33,1.54,1.54,0,0,0-1.08.34,1.66,1.66,0,0,0-.51.87,6.29,6.29,0,0,0-.12,1.33,6.36,6.36,0,0,0,.12,1.33,1.69,1.69,0,0,0,.51.88,1.59,1.59,0,0,0,1.08.33,1.37,1.37,0,0,0,1.36-.67A4.16,4.16,0,0,0,110.36,46.27Z"/><path class="cls-4" d="M120.69,50.1h-1.62v-.7a2.91,2.91,0,0,1-.94.61,3.65,3.65,0,0,1-1.24.18A4.1,4.1,0,0,1,115.6,50a2.31,2.31,0,0,1-.92-.52,2.14,2.14,0,0,1,.63-3.57,4,4,0,0,1,1.55-.28H119V45.1a1.32,1.32,0,0,0-.43-1.08,2.17,2.17,0,0,0-1.37-.35,2.74,2.74,0,0,0-1.07.17,1.9,1.9,0,0,0-.73.57l-1.09-.95a3.16,3.16,0,0,1,1.24-.87,5.17,5.17,0,0,1,1.71-.24q3.39,0,3.39,2.63ZM119,47.33v-.62h-1.93A1.8,1.8,0,0,0,116,47a1,1,0,0,0-.38.82c0,.72.51,1.08,1.51,1.08a4.26,4.26,0,0,0,.88-.08,1.63,1.63,0,0,0,.66-.35A1.5,1.5,0,0,0,119,47.33Z"/><path class="cls-4" d="M124.88,51.11a2.1,2.1,0,0,1-.56,1.52,2.22,2.22,0,0,1-1.69.59h-1V51.91h.73a.91.91,0,0,0,.69-.22,1,1,0,0,0,.2-.67V42.44h1.65Zm.05-10.18h-1.75V39.3h1.75Z"/><path class="cls-4" d="M133.56,50.1h-1.62v-.7A2.94,2.94,0,0,1,131,50a3.61,3.61,0,0,1-1.24.18,4.14,4.14,0,0,1-1.29-.18,2.38,2.38,0,0,1-.92-.52,2.17,2.17,0,0,1-.65-1.64,2.07,2.07,0,0,1,.33-1.16,2.13,2.13,0,0,1,1-.77,3.94,3.94,0,0,1,1.55-.28h2.17V45.1a1.32,1.32,0,0,0-.42-1.08,2.21,2.21,0,0,0-1.37-.35,2.83,2.83,0,0,0-1.08.17,2,2,0,0,0-.73.57l-1.08-.95a3.07,3.07,0,0,1,1.23-.87,5.2,5.2,0,0,1,1.72-.24q3.39,0,3.39,2.63Zm-1.66-2.77v-.62H130a1.77,1.77,0,0,0-1.09.29,1,1,0,0,0-.38.82q0,1.08,1.5,1.08a4.37,4.37,0,0,0,.89-.08,1.63,1.63,0,0,0,.66-.35A1.54,1.54,0,0,0,131.9,47.33Z"/><path class="cls-4" d="M141.69,40.93h-1.75V39.3h1.75Zm-.05,9.17H140V42.44h1.65Z"/><path class="cls-4" d="M159.83,50.1h-1.66V45.44a1.68,1.68,0,0,0-.45-1.29,1.72,1.72,0,0,0-1.2-.42,1.8,1.8,0,0,0-1.2.43,1.51,1.51,0,0,0-.49,1.2V50.1h-1.66V45.44a2,2,0,0,0-.21-1,1.47,1.47,0,0,0-.59-.57,1.93,1.93,0,0,0-.85-.18,1.78,1.78,0,0,0-1.22.43,1.64,1.64,0,0,0-.48,1.28V50.1h-1.66V42.44h1.63v.77a2.83,2.83,0,0,1,1-.64,3.25,3.25,0,0,1,1.21-.22,2.65,2.65,0,0,1,2.33,1.12,3.27,3.27,0,0,1,2.58-1.12,3,3,0,0,1,2.08.7,2.74,2.74,0,0,1,.87,2.15Z"/><path class="cls-4" d="M168.84,46.26a6.31,6.31,0,0,1-.21,1.77,2.77,2.77,0,0,1-.76,1.25,3.43,3.43,0,0,1-2.46.91,3.39,3.39,0,0,1-2.45-.91A2.86,2.86,0,0,1,162.2,48a7.48,7.48,0,0,1,0-3.52,2.93,2.93,0,0,1,.76-1.26,3,3,0,0,1,.63-.46,3.42,3.42,0,0,1,.82-.32,4.09,4.09,0,0,1,1-.12,3.73,3.73,0,0,1,1.43.25,3.24,3.24,0,0,1,1,.65,2.86,2.86,0,0,1,.76,1.25A6.38,6.38,0,0,1,168.84,46.26Zm-1.65,0a6.52,6.52,0,0,0-.11-1.27,1.58,1.58,0,0,0-.46-.83,1.68,1.68,0,0,0-1.21-.44,1.71,1.71,0,0,0-1.21.44,1.64,1.64,0,0,0-.45.83,6.52,6.52,0,0,0-.11,1.27,6.3,6.3,0,0,0,.11,1.25,1.59,1.59,0,0,0,1.66,1.29,1.69,1.69,0,0,0,1.21-.45,1.65,1.65,0,0,0,.46-.84A6.3,6.3,0,0,0,167.19,46.27Z"/><path class="cls-4" d="M177.74,50.1h-1.65V45.44a1.84,1.84,0,0,0-.22-1,1.35,1.35,0,0,0-.59-.57,1.92,1.92,0,0,0-.84-.18,1.81,1.81,0,0,0-1.23.43,1.64,1.64,0,0,0-.48,1.28V50.1h-1.65V42.44h1.62v.77a2.86,2.86,0,0,1,1-.64,3.27,3.27,0,0,1,1.2-.22,2.85,2.85,0,0,1,2,.7,2.7,2.7,0,0,1,.83,2.15Z"/><path class="cls-4" d="M183.72,50.1h-1a2.4,2.4,0,0,1-1.24-.3,1.79,1.79,0,0,1-.76-.78,2.21,2.21,0,0,1-.26-1.05V43.76h-.93V42.58h.93V40.25h1.66v2.33h1.59v1.18h-1.59v4.13a.8.8,0,0,0,.91.9h.68Z"/><path class="cls-4" d="M191.87,50.1h-1.63v-.7a2.8,2.8,0,0,1-.94.61,3.61,3.61,0,0,1-1.24.18,4.1,4.1,0,0,1-1.29-.18,2.38,2.38,0,0,1-.92-.52,2.17,2.17,0,0,1-.65-1.64,2,2,0,0,1,1.29-1.93,3.94,3.94,0,0,1,1.55-.28h2.17V45.1a1.32,1.32,0,0,0-.42-1.08,2.21,2.21,0,0,0-1.37-.35,2.83,2.83,0,0,0-1.08.17,2,2,0,0,0-.73.57l-1.08-.95a3.07,3.07,0,0,1,1.23-.87,5.2,5.2,0,0,1,1.72-.24q3.39,0,3.39,2.63Zm-1.66-2.77v-.62h-1.93a1.77,1.77,0,0,0-1.09.29,1,1,0,0,0-.38.82q0,1.08,1.5,1.08a4.37,4.37,0,0,0,.89-.08,1.63,1.63,0,0,0,.66-.35A1.54,1.54,0,0,0,190.21,47.33Z"/><path class="cls-4" d="M199.91,50.1h-6.12V48.87l4.08-5H194V42.44h5.89v1.23l-4.11,5.06h4.11Z"/><path class="cls-4" d="M208.06,50.1h-1.63v-.7a2.8,2.8,0,0,1-.94.61,3.61,3.61,0,0,1-1.24.18A4.1,4.1,0,0,1,203,50a2.38,2.38,0,0,1-.92-.52,2.17,2.17,0,0,1-.65-1.64,2,2,0,0,1,1.29-1.93,3.94,3.94,0,0,1,1.55-.28h2.17V45.1A1.32,1.32,0,0,0,206,44a2.21,2.21,0,0,0-1.37-.35,2.83,2.83,0,0,0-1.08.17,2,2,0,0,0-.73.57l-1.08-.95a3.07,3.07,0,0,1,1.23-.87,5.2,5.2,0,0,1,1.72-.24q3.39,0,3.39,2.63Zm-1.66-2.77v-.62h-1.93a1.77,1.77,0,0,0-1.09.29,1,1,0,0,0-.38.82q0,1.08,1.5,1.08a4.37,4.37,0,0,0,.89-.08,1.63,1.63,0,0,0,.66-.35A1.54,1.54,0,0,0,206.4,47.33Z"/><path class="cls-4" d="M199.65,39.59l-2,1.94h-1.58l-2-1.94h1.54l1.26,1,1.26-1Z"/></g></g></svg>