<svg id="Layer_1" data-name="Layer 1" xmlns="http://www.w3.org/2000/svg" viewBox="0 0 513 513"><defs><style>.cls-1,.cls-3{fill:#fff;}.cls-1{stroke:#fff;}.cls-1,.cls-2{stroke-miterlimit:10;}.cls-2{fill:#f9c216;stroke:#f9c216;}.cls-4{fill:#010101;}</style></defs><circle class="cls-1" cx="256.5" cy="256.5" r="256"/><circle class="cls-2" cx="255.5" cy="259.5" r="231"/><path class="cls-3" d="M279.49,176.5H174.72a8.89,8.89,0,0,0-8.92,7.75,8.75,8.75,0,0,0,8.69,9.75H279.26a8.89,8.89,0,0,0,8.92-7.75A8.75,8.75,0,0,0,279.49,176.5Z"/><path class="cls-3" d="M244.49,211.5H174.72a8.89,8.89,0,0,0-8.92,7.75,8.75,8.75,0,0,0,8.69,9.75h69.77a8.89,8.89,0,0,0,8.92-7.75A8.75,8.75,0,0,0,244.49,211.5Z"/><path class="cls-3" d="M305.5,124H148a35,35,0,0,0-35,35V334a8.75,8.75,0,0,0,5,7.93,8.9,8.9,0,0,0,3.71.82,8.75,8.75,0,0,0,5.6-2L177.42,299H305.5a35,35,0,0,0,35-35V159A35,35,0,0,0,305.5,124ZM323,264a17.52,17.52,0,0,1-17.5,17.5H174.25a8.74,8.74,0,0,0-5.6,2l-38.15,31.8V159A17.52,17.52,0,0,1,148,141.5H305.5A17.52,17.52,0,0,1,323,159Z"/><path class="cls-3" d="M358.38,194a8.92,8.92,0,0,0-9.09,7.94A8.75,8.75,0,0,0,358,211.5,17.52,17.52,0,0,1,375.5,229V377L346,353.41a8.78,8.78,0,0,0-5.46-1.91H218A17.52,17.52,0,0,1,200.5,334v-8.52a8.89,8.89,0,0,0-7.75-8.92,8.75,8.75,0,0,0-9.75,8.69V334a35,35,0,0,0,35,35H337.42l41.35,33.09A8.76,8.76,0,0,0,393,395.25V229A35,35,0,0,0,358.38,194Z"/><path class="cls-4" d="M-236,259"/></svg>