<svg xmlns="http://www.w3.org/2000/svg" width="344.713" height="160.303" viewBox="0 0 344.713 160.303"><g transform="translate(-73.722 -31.057)"><g transform="translate(195.688 31.057)"><path d="M173.9,66.778l5.629-22H160.643c-2.444,0-4.434,2.49-4.434,5.552V93.271c0,3.062,1.99,5.552,4.434,5.552h62.492c2.444,0,4.433-2.49,4.433-5.552v-3.21l-48.083-12.3C175.14,76.647,172.633,71.721,173.9,66.778Z" transform="translate(-156.209 -24.493)" fill="#ffb400"/><g transform="translate(21.531)"><path d="M247.9,41.379a3.222,3.222,0,0,0-.921-.405L209.486,31.32a8.319,8.319,0,0,0-4.995.266l-22.839,8.563a3.582,3.582,0,0,0-2.2,2.434L171.324,73.2c-.683,2.537.041,5.162,1.723,6.241a3.2,3.2,0,0,0,.924.405L232.389,95.12a3.8,3.8,0,0,0,3.246-.775,6.809,6.809,0,0,0,2.4-3.7l11.591-43.022C250.3,45.083,249.582,42.458,247.9,41.379Z" transform="translate(-170.629 -31.057)" fill="#52585c"/><path d="M220.082,50.276c.024-2.537-1.381-4.811-3.343-5.407a3.568,3.568,0,0,0-1.028-.154H177.329l-6.3,22.608c-.682,2.413.044,4.91,1.727,5.938a3.278,3.278,0,0,0,.924.387l46.039,11.586Z" transform="translate(-170.771 -24.521)" fill="#363b3e"/><path d="M178.125,40.071l5.636,1.981,7.012,2.1s5.194,2.045,6.874-1.279c.986-1.95,3.76-11.532,3.76-11.532Z" transform="translate(-167.251 -30.919)" fill="#363b3e"/></g></g><g transform="translate(73.722 123.22)"><path d="M94.121,128.147h-20.4v-4.625l13.25-19.657H74.29v-5.12H94.121v4.542L80.827,123.027H94.121Z" transform="translate(-73.722 -90.824)" fill="#52585c"/><path d="M116.216,128.147h-6.321l-1.831-5.2H97.038l-1.875,5.2h-6.32l11.289-29.4h4.751Zm-9.763-10.035-3.793-10.695-3.923,10.695Z" transform="translate(-66.485 -90.824)" fill="#52585c"/><path d="M130.931,122.039a7.661,7.661,0,0,1-3.247,6.544,13.619,13.619,0,0,1-8.26,2.376q-7.279,0-11.332-3.883l3.923-3.717q2.615,2.48,7.5,2.48,5.492,0,5.492-3.634a3.1,3.1,0,0,0-.915-2.457,5.2,5.2,0,0,0-2.789-1.053l-3.748-.5q-8.24-1.073-8.237-8.218a8.034,8.034,0,0,1,2.919-6.462,11.865,11.865,0,0,1,7.89-2.457q6.277,0,10.025,3.427l-3.835,3.593a9.128,9.128,0,0,0-6.364-2.024,5.352,5.352,0,0,0-3.553,1.053,3.347,3.347,0,0,0-1.242,2.664,2.744,2.744,0,0,0,.982,2.145,5.2,5.2,0,0,0,2.811,1.116l3.661.5a11.074,11.074,0,0,1,5.928,2.271A7.939,7.939,0,0,1,130.931,122.039Zm-2.876-28.651L122.3,99.2h-4.533l-5.753-5.815h4.4l3.618,3.1,3.617-3.1Z" transform="translate(-57.272 -93.388)" fill="#52585c"/><path d="M148.08,103.865h-8.107v24.282h-6.058V103.865h-8.107v-5.12H148.08Z" transform="translate(-48.793 -90.824)" fill="#52585c"/><path d="M150.26,128.147H144.2v-29.4h6.059Z" transform="translate(-39.99 -90.824)" fill="#52585c"/><path d="M173.9,103.865h-8.109v24.282h-6.058V103.865h-8.107v-5.12H173.9Z" transform="translate(-36.435 -90.824)" fill="#52585c"/><path d="M193.778,128.147h-5.4L176.082,110.1v18.046h-6.059v-29.4h5.406l12.29,18v-18h6.059Z" transform="translate(-27.632 -90.824)" fill="#52585c"/><path d="M211.424,128.147H190.981v-29.4h20.443v5.12H197.039v6.9h12.249v5.122H197.039v7.143h14.385Z" transform="translate(-17.601 -90.824)" fill="#52585c"/><path d="M236.1,103.865H221.712v7.227H233.96v5.12H221.712v11.934h-6.059v-29.4H236.1Z" transform="translate(-5.793 -90.824)" fill="#52585c"/><path d="M255.264,113.525a37.473,37.473,0,0,1-.393,6.649,9.082,9.082,0,0,1-2.7,5.079,12.536,12.536,0,0,1-16.781,0,9.263,9.263,0,0,1-2.7-5.079,41.737,41.737,0,0,1-.347-6.649,41.727,41.727,0,0,1,.347-6.648,9.263,9.263,0,0,1,2.7-5.079,12.54,12.54,0,0,1,16.781,0,9.086,9.086,0,0,1,2.7,5.079A37.465,37.465,0,0,1,255.264,113.525Zm-6.059,0q0-3.385-.086-4.294a6.569,6.569,0,0,0-1.44-3.964A5.087,5.087,0,0,0,243.8,103.7a5.139,5.139,0,0,0-3.923,1.569,6.765,6.765,0,0,0-1.394,3.964q-.086.743-.089,4.294t.089,4.3a6.765,6.765,0,0,0,1.394,3.964,5.145,5.145,0,0,0,3.923,1.57,5.038,5.038,0,0,0,4.227-1.983Q249.205,119.844,249.2,113.525Z" transform="translate(2.192 -90.904)" fill="#52585c"/><path d="M272.165,128.147H252.028v-29.4h6.058v24.282h14.079Z" transform="translate(11.616 -90.824)" fill="#52585c"/><path d="M275.036,128.147h-6.059v-29.4h6.059Z" transform="translate(19.728 -90.824)" fill="#52585c"/><path d="M294.556,118.484a9.069,9.069,0,0,1-3.312,7.392,11.588,11.588,0,0,1-7.628,2.52,11.133,11.133,0,0,1-7.976-3.016l4.01-3.757a5.608,5.608,0,0,0,3.966,1.653q4.882,0,4.881-5.038V98.745h6.059Z" transform="translate(22.917 -90.824)" fill="#52585c"/><path d="M313.473,128.147H293.03v-29.4h20.443v5.12H299.089v6.9h12.247v5.122H299.089v7.143h14.384Z" transform="translate(31.24 -90.824)" fill="#52585c"/></g><g transform="translate(151.297 170.775)"><path d="M138.133,130.413a4.675,4.675,0,0,1-.667,2.481,4.588,4.588,0,0,1-1.919,1.723,6.353,6.353,0,0,1-2.877.627H128.8v6.247h-2.61v-15.9h6.478a6.74,6.74,0,0,1,2.247.365,5.06,5.06,0,0,1,1.757,1.013,4.394,4.394,0,0,1,1.09,1.516A4.8,4.8,0,0,1,138.133,130.413Zm-2.586.006a2.426,2.426,0,0,0-.825-1.949,3.249,3.249,0,0,0-2.193-.707H128.8v5.287h3.732a3.264,3.264,0,0,0,2.2-.7A2.408,2.408,0,0,0,135.547,130.419Z" transform="translate(-126.187 -125.529)" fill="#a3a4a3"/><path d="M144.726,129.68l-1.848,1.717a2.987,2.987,0,0,0-.807-.578,2.479,2.479,0,0,0-1.005-.174,2.4,2.4,0,0,0-1.212.316,2.333,2.333,0,0,0-.883.887,2.634,2.634,0,0,0-.327,1.334v6.873H136.2V128.737h2.4v1.227a3.29,3.29,0,0,1,1.351-1,4.725,4.725,0,0,1,1.878-.373,4.641,4.641,0,0,1,1.585.247A3.832,3.832,0,0,1,144.726,129.68Z" transform="translate(-121.396 -124.093)" fill="#a3a4a3"/><path d="M153.056,134.384a9.545,9.545,0,0,1-.3,2.617,4.108,4.108,0,0,1-1.136,1.844,5.58,5.58,0,0,1-7.254,0,4.192,4.192,0,0,1-1.128-1.85,9.36,9.36,0,0,1-.311-2.611,9.21,9.21,0,0,1,.316-2.593,4.305,4.305,0,0,1,2.048-2.54,5.081,5.081,0,0,1,1.221-.476,5.856,5.856,0,0,1,1.468-.179,5.566,5.566,0,0,1,2.117.371,4.573,4.573,0,0,1,1.521.97,4.212,4.212,0,0,1,1.13,1.848A9.314,9.314,0,0,1,153.056,134.384Zm-2.446.006a8.966,8.966,0,0,0-.164-1.866,2.31,2.31,0,0,0-.679-1.236,2.47,2.47,0,0,0-1.791-.643,2.5,2.5,0,0,0-1.777.643,2.356,2.356,0,0,0-.668,1.236,10.726,10.726,0,0,0,0,3.722,2.35,2.35,0,0,0,.668,1.236,2.512,2.512,0,0,0,1.777.674,2.48,2.48,0,0,0,1.791-.674,2.3,2.3,0,0,0,.679-1.236A8.909,8.909,0,0,0,150.61,134.39Z" transform="translate(-118.177 -124.093)" fill="#a3a4a3"/><path d="M161.572,141.49h-2.4v-1.21a3.938,3.938,0,0,1-.936.806,3.6,3.6,0,0,1-1.031.41,5.706,5.706,0,0,1-1.251.124,5.04,5.04,0,0,1-1.68-.272,3.825,3.825,0,0,1-1.292-.73,3.453,3.453,0,0,1-.872-1.3,6.325,6.325,0,0,1-.392-1.6,17.189,17.189,0,0,1-.093-1.9,17.01,17.01,0,0,1,.093-1.891,6.248,6.248,0,0,1,.392-1.587,3.483,3.483,0,0,1,.872-1.3,3.608,3.608,0,0,1,1.286-.747,5.064,5.064,0,0,1,1.66-.266,5.154,5.154,0,0,1,1.785.284,3.607,3.607,0,0,1,1.411,1v-5.719h2.446Zm-2.446-5.665a8.908,8.908,0,0,0-.188-1.965,2.372,2.372,0,0,0-.742-1.3,2.336,2.336,0,0,0-1.585-.485,2.167,2.167,0,0,0-2.352,1.786,10.344,10.344,0,0,0,0,3.924,2.413,2.413,0,0,0,.748,1.307,2.354,2.354,0,0,0,1.6.494,2.037,2.037,0,0,0,2.006-.994A6.2,6.2,0,0,0,159.126,135.826Z" transform="translate(-114.011 -125.529)" fill="#a3a4a3"/><path d="M170.213,140.054h-2.4V139.03a4.162,4.162,0,0,1-1.391.889,5.405,5.405,0,0,1-1.838.266,6.364,6.364,0,0,1-1.907-.256,3.51,3.51,0,0,1-1.356-.767,3.228,3.228,0,0,1-.96-2.432,3.056,3.056,0,0,1,.479-1.706,3.133,3.133,0,0,1,1.422-1.146,5.735,5.735,0,0,1,2.286-.408h3.219v-.8a1.933,1.933,0,0,0-.633-1.6,3.228,3.228,0,0,0-2.024-.51,4.2,4.2,0,0,0-1.585.24,2.923,2.923,0,0,0-1.082.847l-1.6-1.4a4.577,4.577,0,0,1,1.826-1.283,7.532,7.532,0,0,1,2.539-.361q5.006,0,5.007,3.893Zm-2.444-4.088v-.917h-2.855a2.628,2.628,0,0,0-1.621.426,1.431,1.431,0,0,0-.556,1.21q0,1.6,2.222,1.6a5.742,5.742,0,0,0,1.311-.126,1.9,1.9,0,0,0,1.5-2.2Z" transform="translate(-109.83 -124.093)" fill="#a3a4a3"/><path d="M172.787,143a3.132,3.132,0,0,1-.837,2.252,3.3,3.3,0,0,1-2.5.878h-1.51v-1.943h1.076a1.361,1.361,0,0,0,1.017-.319,1.41,1.41,0,0,0,.3-1V130.194h2.446Zm.07-15.046H170.27V125.55h2.586Z" transform="translate(-106.202 -125.55)" fill="#a3a4a3"/><path d="M183.081,140.054h-2.4V139.03a4.162,4.162,0,0,1-1.391.889,5.405,5.405,0,0,1-1.838.266,6.363,6.363,0,0,1-1.907-.256,3.51,3.51,0,0,1-1.356-.767,3.228,3.228,0,0,1-.96-2.432,3.056,3.056,0,0,1,.479-1.706,3.133,3.133,0,0,1,1.422-1.146,5.735,5.735,0,0,1,2.286-.408h3.219v-.8a1.933,1.933,0,0,0-.633-1.6,3.228,3.228,0,0,0-2.024-.51,4.2,4.2,0,0,0-1.585.24,2.924,2.924,0,0,0-1.082.847l-1.6-1.4a4.577,4.577,0,0,1,1.826-1.283,7.532,7.532,0,0,1,2.539-.361q5.006,0,5.008,3.893Zm-2.446-4.088v-.917H177.78a2.628,2.628,0,0,0-1.621.426,1.431,1.431,0,0,0-.556,1.21q0,1.6,2.222,1.6a5.742,5.742,0,0,0,1.312-.126,1.9,1.9,0,0,0,1.5-2.2Z" transform="translate(-103.672 -124.093)" fill="#a3a4a3"/><path d="M188.862,127.959h-2.585V125.55h2.585Zm-.069,13.553h-2.446V130.194h2.446Z" transform="translate(-97.428 -125.55)" fill="#a3a4a3"/><path d="M211.744,140.054H209.3v-6.893a2.451,2.451,0,0,0-.677-1.9,2.5,2.5,0,0,0-1.762-.621,2.63,2.63,0,0,0-1.78.631,2.227,2.227,0,0,0-.729,1.776v7H201.9v-6.893a2.836,2.836,0,0,0-.321-1.416,1.988,1.988,0,0,0-.872-.832,2.819,2.819,0,0,0-1.252-.268,2.6,2.6,0,0,0-1.807.637,2.4,2.4,0,0,0-.708,1.879v6.893H194.5V128.737h2.4v1.14a4.056,4.056,0,0,1,1.439-.948,4.827,4.827,0,0,1,1.789-.334,3.927,3.927,0,0,1,3.453,1.666,4.829,4.829,0,0,1,3.813-1.666,4.4,4.4,0,0,1,3.065,1.035,4.059,4.059,0,0,1,1.288,3.185Z" transform="translate(-93.493 -124.093)" fill="#a3a4a3"/><path d="M218.453,134.384a9.545,9.545,0,0,1-.3,2.617,4.118,4.118,0,0,1-1.134,1.844,5.58,5.58,0,0,1-7.254,0,4.193,4.193,0,0,1-1.128-1.85,10.985,10.985,0,0,1,0-5.2,4.32,4.32,0,0,1,2.048-2.54,5.118,5.118,0,0,1,1.223-.476,5.856,5.856,0,0,1,1.468-.179,5.571,5.571,0,0,1,2.117.371,4.574,4.574,0,0,1,1.521.97,4.183,4.183,0,0,1,1.128,1.848A9.315,9.315,0,0,1,218.453,134.384Zm-2.444.006a8.856,8.856,0,0,0-.166-1.866,2.308,2.308,0,0,0-.677-1.236,2.473,2.473,0,0,0-1.791-.643,2.5,2.5,0,0,0-1.777.643,2.336,2.336,0,0,0-.668,1.236,10.631,10.631,0,0,0,0,3.722,2.331,2.331,0,0,0,.668,1.236,2.512,2.512,0,0,0,1.777.674,2.478,2.478,0,0,0,1.791-.674,2.3,2.3,0,0,0,.677-1.236A8.8,8.8,0,0,0,216.009,134.39Z" transform="translate(-86.877 -124.093)" fill="#a3a4a3"/><path d="M227.266,140.054H224.82v-6.893a2.835,2.835,0,0,0-.322-1.416,1.973,1.973,0,0,0-.872-.832,2.812,2.812,0,0,0-1.251-.268,2.6,2.6,0,0,0-1.807.637,2.4,2.4,0,0,0-.708,1.879v6.893h-2.446V128.737h2.4v1.14a4.047,4.047,0,0,1,1.462-.954,4.888,4.888,0,0,1,1.767-.328,4.272,4.272,0,0,1,3,1.035,4.055,4.055,0,0,1,1.229,3.185Z" transform="translate(-82.525 -124.093)" fill="#a3a4a3"/><path d="M232.049,141.057h-1.461a3.592,3.592,0,0,1-1.83-.436,2.835,2.835,0,0,1-1.13-1.15,3.3,3.3,0,0,1-.376-1.566V131.68h-1.38v-1.743h1.38V126.5H229.7v3.436h2.351v1.743H229.7V137.8a1.178,1.178,0,0,0,1.346,1.32h1.005Z" transform="translate(-78.477 -125.095)" fill="#a3a4a3"/><path d="M241.39,140.054h-2.4V139.03a4.148,4.148,0,0,1-1.391.889,5.4,5.4,0,0,1-1.836.266,6.357,6.357,0,0,1-1.907-.256,3.527,3.527,0,0,1-1.357-.767,3.234,3.234,0,0,1-.96-2.432,3.056,3.056,0,0,1,.479-1.706,3.141,3.141,0,0,1,1.422-1.146,5.748,5.748,0,0,1,2.287-.408h3.217v-.8a1.932,1.932,0,0,0-.631-1.6,3.233,3.233,0,0,0-2.024-.51,4.19,4.19,0,0,0-1.585.24,2.939,2.939,0,0,0-1.084.847l-1.6-1.4a4.6,4.6,0,0,1,1.826-1.283,7.538,7.538,0,0,1,2.539-.361q5.008,0,5.008,3.893Zm-2.446-4.088v-.917h-2.855a2.631,2.631,0,0,0-1.621.426,1.434,1.434,0,0,0-.554,1.21q0,1.6,2.222,1.6a5.729,5.729,0,0,0,1.31-.126,1.895,1.895,0,0,0,1.5-2.2Z" transform="translate(-75.765 -124.093)" fill="#a3a4a3"/><path d="M249.179,140.008h-9.056V138.2l6.037-7.479h-5.7v-2.029h8.716V130.5l-6.084,7.48h6.084Z" transform="translate(-71.657 -124.047)" fill="#a3a4a3"/><path d="M257.58,140.054h-2.4V139.03a4.139,4.139,0,0,1-1.393.889,5.387,5.387,0,0,1-1.835.266,6.356,6.356,0,0,1-1.907-.256,3.516,3.516,0,0,1-1.357-.767,3.228,3.228,0,0,1-.96-2.432,3.056,3.056,0,0,1,.479-1.706,3.133,3.133,0,0,1,1.422-1.146,5.738,5.738,0,0,1,2.287-.408h3.216v-.8a1.928,1.928,0,0,0-.631-1.6,3.228,3.228,0,0,0-2.024-.51,4.2,4.2,0,0,0-1.585.24,2.947,2.947,0,0,0-1.082.847l-1.6-1.4a4.593,4.593,0,0,1,1.825-1.283,7.553,7.553,0,0,1,2.54-.361q5.008,0,5.008,3.893Zm-2.447-4.088v-.917h-2.854a2.631,2.631,0,0,0-1.621.426,1.435,1.435,0,0,0-.556,1.21q0,1.6,2.224,1.6a5.738,5.738,0,0,0,1.31-.126,1.893,1.893,0,0,0,1.5-2.2Z" transform="translate(-68.017 -124.093)" fill="#a3a4a3"/><path d="M248.667,125.84,245.7,128.7h-2.341l-2.972-2.863h2.274l1.869,1.524,1.867-1.524Z" transform="translate(-71.532 -125.411)" fill="#a3a4a3"/></g></g></svg>